<?xml version="1.0" encoding="UTF-8" standalone="no"?>
<!-- Created with Inkscape (http://www.inkscape.org/) -->

<svg
   version="1.1"
   id="svg2"
   width="315.23022"
   height="315.25671"
   viewBox="0 0 315.23022 315.25671"
   sodipodi:docname="cd77d4f8-6feb-4f51-a952-404bded40584.eps"
   xmlns:inkscape="http://www.inkscape.org/namespaces/inkscape"
   xmlns:sodipodi="http://sodipodi.sourceforge.net/DTD/sodipodi-0.dtd"
   xmlns="http://www.w3.org/2000/svg"
   xmlns:svg="http://www.w3.org/2000/svg">
  <defs
     id="defs6" />
  <sodipodi:namedview
     id="namedview4"
     pagecolor="#ffffff"
     bordercolor="#000000"
     borderopacity="0.25"
     inkscape:showpageshadow="2"
     inkscape:pageopacity="0.0"
     inkscape:pagecheckerboard="0"
     inkscape:deskcolor="#d1d1d1"
     showgrid="false" />
  <g
     id="g10"
     inkscape:groupmode="layer"
     inkscape:label="Page 1"
     transform="matrix(1.3333333,0,0,-1.3333333,-2438.5315,1984.4016)">
    <g
       id="g12"
       transform="scale(0.1)">
      <path
         d="m 1988.99,17091.4 364.65,-83.7 c 292.29,-67 524.49,-299.3 591.5,-591.6 l 83.68,-364.6 83.83,364.7 c 67.06,292.3 299.27,524.5 591.49,591.5 l 364.72,83.7 -364.72,83.7 c -292.22,67.1 -524.43,299.3 -591.49,591.6 l -83.83,364.8 -83.68,-364.7 c -67.01,-292.3 -299.21,-524.6 -591.57,-591.7 z m 1039.83,-1188.5 v 0 c -12.68,0 -23.67,8.7 -26.45,21.1 l -110.13,479.9 c -62.46,272.2 -278.66,488.4 -550.81,550.9 l -480.01,110.2 c -12.34,2.8 -21.09,13.8 -21.09,26.4 0,12.7 8.75,23.7 21.09,26.5 l 479.94,110.1 c 272.22,62.6 488.42,278.8 550.88,551 l 110.13,480 c 5.57,24.7 47.34,24.7 52.9,0 l 110.27,-480.1 c 62.53,-272.1 278.73,-488.3 550.81,-550.9 l 480.07,-110.1 c 12.34,-2.8 21.09,-13.8 21.09,-26.5 0,-12.6 -8.75,-23.6 -21.09,-26.4 l -480.07,-110.2 c -272.08,-62.5 -488.28,-278.7 -550.81,-550.8 v 0 l -110.27,-480 c -2.78,-12.4 -13.77,-21.1 -26.45,-21.1"
         style="fill:#001c41;fill-opacity:1;fill-rule:nonzero;stroke:none"
         id="path16" />
      <path
         d="m 6272.3,17091.4 447.45,-46.6 c 201.62,-46 359.23,-203.6 404.8,-402 l 47,-450.5 46.59,447.2 c 0.07,1.2 0.27,2.3 0.54,3.3 45.51,198.4 203.04,356 401.41,401.5 l 450.78,47 -447.39,46.6 c -201.69,45.9 -359.29,203.5 -404.8,402 l -46.99,450.7 -46.59,-447.4 c -46.12,-201.8 -203.73,-359.4 -402.16,-404.8 z M 7171.62,15903 c -13.91,0 -25.57,10.5 -27,24.4 l -73.51,706.6 c -40.42,174.9 -182.02,316.5 -360.24,357.4 l -703.47,73 c -13.9,1.4 -24.41,13.1 -24.41,27 0,13.9 10.51,25.5 24.41,27 l 706.72,73.5 c 174.97,40.3 316.57,181.9 357.53,360.2 l 72.97,703.4 c 1.43,13.9 13.09,24.4 27,24.4 13.9,0 25.56,-10.5 26.99,-24.4 l 73.51,-706.7 c 40.35,-175 181.96,-316.6 360.18,-357.5 l 703.46,-72.9 c 13.9,-1.5 24.41,-13.1 24.41,-27 0,-13.9 -10.51,-25.6 -24.41,-27 l -706.79,-73.6 c -174.35,-40.2 -315.62,-181.1 -356.98,-358.5 l -73.38,-704.9 c -1.43,-13.9 -13.09,-24.4 -26.99,-24.4"
         style="fill:#001c41;fill-opacity:1;fill-rule:nonzero;stroke:none"
         id="path18" />
      <path
         d="m 10558.2,17091.4 417.9,-28 c 155.1,-35.2 275,-155 309.6,-305.9 l 28.4,-422 28,417.8 c 0.1,1.4 0.3,2.8 0.6,4.1 34.4,150.9 154.3,270.8 305.4,305.4 l 422.2,28.4 -417.9,28 c -155.4,35.2 -275.3,155.2 -309.7,306.1 l -28.4,422 -28,-417.8 c -35.2,-155.1 -155.1,-275.1 -306.1,-309.6 z m 756,-1188.4 c -14.3,0 -26.2,11.1 -27.1,25.3 l -55,821.3 c -29.3,126.5 -133.2,230.3 -263.9,260.3 l -817.2,54.4 c -14.2,0.9 -25.3,12.8 -25.3,27.1 0,14.3 11.1,26.2 25.3,27.1 l 821.3,54.9 c 126.6,29.3 230.5,133.2 260.5,264 l 54.3,817.2 c 0.9,14.2 12.8,25.3 27.1,25.3 14.3,0 26.2,-11.1 27.1,-25.3 l 55,-821.4 c 29.2,-126.6 133.1,-230.4 264,-260.4 l 817.2,-54.3 c 14.3,-0.9 25.4,-12.8 25.4,-27.1 0,-14.3 -11.1,-26.2 -25.4,-27.1 l -821.5,-55.1 c -126,-29.2 -229.4,-132.1 -259.8,-261.8 l -54.9,-819.1 c -0.9,-14.2 -12.8,-25.3 -27.1,-25.3"
         style="fill:#001c41;fill-opacity:1;fill-rule:nonzero;stroke:none"
         id="path20" />
      <path
         d="m 19527.7,16740.8 c 33.6,146.1 147.9,260.4 294,293.9 l 847.3,56.7 -847.3,56.7 c -146.1,33.6 -260.4,147.7 -294,294 l -56.6,847.3 -56.7,-847.3 c -33.6,-146.3 -147.8,-260.4 -294.1,-294 l -847.1,-56.7 847.2,-56.7 c 146.2,-33.5 260.4,-147.8 294,-293.9 l 56.7,-847.2 56.6,847.2"
         style="fill:#001c41;fill-opacity:1;fill-rule:nonzero;stroke:none"
         id="path22" />
      <path
         d="m 15162.9,16684.2 c 179.8,112.7 408,112.6 588,0 l 903.9,-790.6 -790.6,903.8 c -112.6,179.9 -112.6,408.3 0,588 l 790.6,904 -903.9,-790.6 c -180,-112.7 -408.2,-112.5 -588,0.1 l -903.8,790.5 790.3,-904.1 c 112.8,-179.7 112.8,-408 0.2,-587.8 l -790.5,-903.9 903.8,790.6"
         style="fill:#001c41;fill-opacity:1;fill-rule:nonzero;stroke:none"
         id="path24" />
      <path
         d="m 7285.19,5897.7 c 67.31,293.1 296.12,521.9 589.21,589.2 l 495.07,113.6 -495.01,113.6 c -293.15,67.3 -521.96,296.2 -589.27,589.3 l -113.59,495.1 -113.59,-495.1 c -67.31,-293.1 -296.11,-522 -589.27,-589.3 l -495.01,-113.6 495.08,-113.6 c 293.09,-67.3 521.89,-296.1 589.2,-589.2 l 113.59,-495 113.59,495"
         style="fill:#001c41;fill-opacity:1;fill-rule:nonzero;stroke:none"
         id="path26" />
      <path
         d="m 11390.1,6131.6 c 44.8,195.5 197.5,348.2 393,393 l 729,76 -728.8,75.7 c -195.7,44.9 -348.4,197.6 -393.2,393.2 l -75.9,729 -75.8,-729 c -44.8,-195.6 -197.7,-348.3 -393.2,-393.2 l -728.8,-75.7 728.9,-76 c 195.6,-44.8 348.3,-197.5 393.1,-393 l 75.8,-729 75.9,729"
         style="fill:#001c41;fill-opacity:1;fill-rule:nonzero;stroke:none"
         id="path28" />
      <path
         d="m 15513.6,6249.9 c 33.4,146.1 147.7,260.4 293.8,293.9 l 847.4,56.8 -847.2,56.6 c -146.3,33.6 -260.6,147.7 -294,294 l -56.7,847.3 -56.7,-847.3 c -33.6,-146.3 -147.9,-260.4 -294.1,-294 l -847,-56.6 847.1,-56.8 c 146.3,-33.5 260.4,-147.8 294,-293.9 l 56.7,-847.3 56.7,847.3"
         style="fill:#001c41;fill-opacity:1;fill-rule:nonzero;stroke:none"
         id="path30" />
      <path
         d="m 19527.7,6249.9 c 33.5,146.1 147.8,260.4 294,293.9 l 847.3,56.8 -847.3,56.6 c -146.2,33.6 -260.5,147.7 -294,294 l -56.6,847.3 -56.7,-847.3 c -33.6,-146.3 -147.8,-260.4 -294,-294 l -847.2,-56.6 847.2,-56.8 c 146.2,-33.5 260.4,-147.8 294,-293.9 l 56.7,-847.3 56.6,847.3"
         style="fill:#001c41;fill-opacity:1;fill-rule:nonzero;stroke:none"
         id="path32" />
      <path
         d="m 3112.46,6533 1114.33,67.6 -1114.33,67.3 -83.53,1130.5 -83.67,-1130.5 -1114.2,-67.3 1114.2,-67.6 83.67,-1130.3 83.53,1130.3"
         style="fill:#001c41;fill-opacity:1;fill-rule:nonzero;stroke:none"
         id="path34" />
      <path
         d="m 3028.79,14949 c 85.9,-795.7 86.54,-1600.2 0.02,-2395.8 -86.62,795.6 -85.91,1600.1 -0.02,2395.8 v 0"
         style="fill:#ffeeaa;fill-opacity:1;fill-rule:nonzero;stroke:none"
         id="path36" />
      <path
         d="m 4226.64,13751.2 c -795.55,-85.9 -1599.9,-86.6 -2395.42,0 795.51,86.6 1599.87,85.9 2395.42,0 v 0"
         style="fill:#ffeeaa;fill-opacity:1;fill-rule:nonzero;stroke:none"
         id="path38" />
      <path
         d="m 3875.99,14598.1 c -501.87,-623.3 -1070.27,-1192.7 -1694.05,-1694 501.36,623.8 1070.71,1192.2 1694.05,1694 v 0"
         style="fill:#ffeeaa;fill-opacity:1;fill-rule:nonzero;stroke:none"
         id="path40" />
      <path
         d="m 3875.99,12904.2 c -623.32,501.8 -1192.59,1070.1 -1693.93,1693.9 623.79,-501.3 1192.11,-1070.6 1693.93,-1693.9 v 0"
         style="fill:#ffeeaa;fill-opacity:1;fill-rule:nonzero;stroke:none"
         id="path42" />
      <path
         d="m 7171.58,14949 c 68.71,-796.7 69.26,-1599.1 0.02,-2395.8 -69.33,796.7 -68.78,1599.1 -0.02,2395.8 v 0"
         style="fill:#001c41;fill-opacity:1;fill-rule:nonzero;stroke:none"
         id="path44" />
      <path
         d="m 8369.37,13751.2 c -796.59,-68.8 -1598.95,-69.3 -2395.53,0 796.58,69.2 1598.94,68.7 2395.53,0 v 0"
         style="fill:#001c41;fill-opacity:1;fill-rule:nonzero;stroke:none"
         id="path46" />
      <path
         d="m 8018.65,14598.1 c -514.79,-612 -1081.74,-1179.6 -1694.09,-1694 514.36,612.3 1082.12,1179.3 1694.09,1694 v 0"
         style="fill:#001c41;fill-opacity:1;fill-rule:nonzero;stroke:none"
         id="path48" />
      <path
         d="m 8018.65,12904.1 c -611.89,514.8 -1179.53,1081.7 -1693.8,1694 612.25,-514.3 1179.14,-1082 1693.8,-1694 v 0"
         style="fill:#001c41;fill-opacity:1;fill-rule:nonzero;stroke:none"
         id="path50" />
      <path
         d="m 11314.3,14949 c 36.4,-798.1 36.7,-1597.7 0,-2395.8 -36.7,798.1 -36.4,1597.7 0,2395.8 v 0"
         style="fill:#001c41;fill-opacity:1;fill-rule:nonzero;stroke:none"
         id="path52" />
      <path
         d="m 12512,13751.2 c -798,-36.4 -1597.5,-36.7 -2395.5,0 798,36.7 1597.5,36.4 2395.5,0 v 0"
         style="fill:#001c41;fill-opacity:1;fill-rule:nonzero;stroke:none"
         id="path54" />
      <path
         d="m 12161.3,14598.1 c -538.6,-590 -1103.9,-1155.7 -1694.1,-1694 538.4,590.3 1104,1155.5 1694.1,1694 v 0"
         style="fill:#001c41;fill-opacity:1;fill-rule:nonzero;stroke:none"
         id="path56" />
      <path
         d="m 12161.3,12904.2 c -590,538.5 -1155.6,1103.7 -1693.9,1693.9 590.2,-538.3 1155.4,-1103.9 1693.9,-1693.9 v 0"
         style="fill:#001c41;fill-opacity:1;fill-rule:nonzero;stroke:none"
         id="path58" />
      <path
         d="m 15456.9,14949 c 57.3,-798.4 57.7,-1597.4 0.1,-2395.8 -57.8,798.4 -57.3,1597.4 -0.1,2395.8 v 0"
         style="fill:#001c41;fill-opacity:1;fill-rule:nonzero;stroke:none"
         id="path60" />
      <path
         d="m 16654.7,13751.2 c -798.3,-57.3 -1597.3,-57.7 -2395.6,0 798.3,57.7 1597.3,57.2 2395.6,0 v 0"
         style="fill:#001c41;fill-opacity:1;fill-rule:nonzero;stroke:none"
         id="path62" />
      <path
         d="m 16304,14598.1 c -524.1,-605 -1088.7,-1170.3 -1694.1,-1694 523.8,605.3 1089.1,1169.9 1694.1,1694 v 0"
         style="fill:#001c41;fill-opacity:1;fill-rule:nonzero;stroke:none"
         id="path64" />
      <path
         d="m 16304,12904.2 c -604.9,524 -1170.2,1088.6 -1693.9,1693.9 605.3,-523.7 1169.9,-1088.9 1693.9,-1693.9 v 0"
         style="fill:#001c41;fill-opacity:1;fill-rule:nonzero;stroke:none"
         id="path66" />
      <path
         d="m 19511.3,14842.4 -30.1,-940.2 c -0.2,-12.4 -20,-12.8 -20.1,0 l -30.1,940.2 c -1.4,53.9 81.5,54.4 80.3,0 v 0"
         style="fill:#ffeeaa;fill-opacity:1;fill-rule:nonzero;stroke:none"
         id="path68" />
      <path
         d="m 19431,12559.2 30.1,940.2 c 0.1,12.3 19.9,12.8 20.1,0 l 30.1,-940.2 c 1.3,-53.9 -81.6,-54.4 -80.3,0 v 0"
         style="fill:#ffeeaa;fill-opacity:1;fill-rule:nonzero;stroke:none"
         id="path70" />
      <path
         d="m 20612.6,13660.7 -940.1,30.1 c -12.3,0.2 -12.7,19.9 0,20.1 l 940.1,30.1 c 53.9,1.3 54.4,-81.6 0,-80.3 v 0"
         style="fill:#ffeeaa;fill-opacity:1;fill-rule:nonzero;stroke:none"
         id="path72" />
      <path
         d="m 18329.6,13741 940,-30.1 c 12.4,-0.2 12.8,-19.9 0,-20.1 l -940,-30.1 c -53.9,-1.3 -54.4,81.6 0,80.3 v 0"
         style="fill:#ffeeaa;fill-opacity:1;fill-rule:nonzero;stroke:none"
         id="path74" />
      <path
         d="m 20129,14302 -539.6,-497.3 c -8.9,-8.5 -22.9,5.1 -14.2,14.2 l 497,539.9 c 37.3,39.7 96.7,-19.1 56.8,-56.8 v 0"
         style="fill:#ffeeaa;fill-opacity:1;fill-rule:nonzero;stroke:none"
         id="path76" />
      <path
         d="m 18813.2,13099.5 539.5,497.4 c 9,8.5 23,-5.1 14.3,-14.2 l -497,-539.9 c -37.3,-39.8 -96.8,19.1 -56.8,56.7 v 0"
         style="fill:#ffeeaa;fill-opacity:1;fill-rule:nonzero;stroke:none"
         id="path78" />
      <path
         d="m 20072.2,13042.9 -497,539.8 c -8.5,8.9 5.1,22.9 14.2,14.2 l 539.6,-497.2 c 39.7,-37.3 -19.3,-96.8 -56.8,-56.8 v 0"
         style="fill:#ffeeaa;fill-opacity:1;fill-rule:nonzero;stroke:none"
         id="path80" />
      <path
         d="m 18870,14358.7 497,-539.8 c 8.5,-8.9 -5.1,-22.9 -14.3,-14.2 l -539.5,497.2 c -39.7,37.3 19.2,96.7 56.8,56.8 v 0"
         style="fill:#ffeeaa;fill-opacity:1;fill-rule:nonzero;stroke:none"
         id="path82" />
      <path
         d="m 18435.9,10276 1035.2,-1035.2 1035.1,1035.2 -1035.1,1035.2 z m 1035.2,-1119.1 c -9.2,0 -18.1,3.7 -24.6,10.2 l -1084.2,1084.3 c -13.6,13.6 -13.6,35.6 0,49.1 l 1084.2,1084.3 c 13.6,13.6 35.6,13.6 49.1,0 l 1084.3,-1084.3 c 13.5,-13.5 13.5,-35.5 0,-49.1 L 19495.6,9167.1 c -6.5,-6.5 -15.3,-10.2 -24.5,-10.2"
         style="fill:#001c41;fill-opacity:1;fill-rule:nonzero;stroke:none"
         id="path84" />
      <path
         d="m 14604.8,10276 852.1,-1048.9 852.2,1048.9 -852.2,1048.9 z m 852.1,-1138.7 v 0 c -10.5,0 -20.4,4.7 -27,12.8 l -896.8,1104 c -10.3,12.7 -10.3,31.1 0,43.8 l 896.8,1103.9 c 13.2,16.3 40.7,16.3 53.9,0 l 896.9,-1103.9 c 10.4,-12.7 10.4,-31.1 0,-43.8 l -896.9,-1104 c -6.6,-8.1 -16.5,-12.8 -26.9,-12.8"
         style="fill:#001c41;fill-opacity:1;fill-rule:nonzero;stroke:none"
         id="path86" />
      <path
         d="m 10710,10276 604.2,-1060.3 604.3,1060.3 -604.3,1060.2 z m 604.2,-1165.2 v 0 c -12.5,0 -24,6.8 -30.2,17.6 l -644.1,1130.4 c -6,10.7 -6,23.7 0,34.4 l 644.1,1130.3 c 12.4,21.7 48,21.7 60.4,0.1 l 644.2,-1130.4 c 6.1,-10.7 6.1,-23.7 0,-34.4 l -644.2,-1130.5 c -6.2,-10.7 -17.7,-17.5 -30.2,-17.5"
         style="fill:#001c41;fill-opacity:1;fill-rule:nonzero;stroke:none"
         id="path88" />
      <path
         d="m 2719.37,10276 309.59,-1011.8 309.51,1011.8 -309.51,1011.7 z m 309.59,-1165.2 c -15.26,0 -28.76,10 -33.23,24.6 l -345.87,1130.4 c -1.96,6.7 -1.96,13.7 0,20.4 l 345.87,1130.3 c 4.47,14.6 17.97,24.6 33.23,24.6 v 0 c 15.26,0 28.75,-10 33.23,-24.6 l 345.8,-1130.3 c 1.96,-6.7 1.96,-13.7 0,-20.4 l -345.8,-1130.4 c -4.48,-14.6 -17.97,-24.6 -33.23,-24.6"
         style="fill:#001c41;fill-opacity:1;fill-rule:nonzero;stroke:none"
         id="path90" />
      <path
         d="m 6686.79,10276 484.83,-1047.8 484.82,1047.8 -484.82,1047.7 z m 484.83,-1165.2 c -13.57,0 -25.84,7.9 -31.54,20.2 l -523.07,1130.4 c -4.27,9.2 -4.27,20 0,29.2 l 523.07,1130.3 c 11.39,24.6 51.68,24.6 63.07,0 l 523.07,-1130.3 c 4.27,-9.2 4.27,-20 0,-29.2 L 7203.15,9131 c -5.69,-12.3 -17.97,-20.2 -31.53,-20.2"
         style="fill:#001c41;fill-opacity:1;fill-rule:nonzero;stroke:none"
         id="path92" />
      <path
         d="M 3183.63,2753.9 4226.81,2908.6 3183.63,3063.2 3028.91,4106.4 2874.22,3063.2 1831.03,2908.6 2874.22,2753.9 3028.91,1710.6 3183.63,2753.9"
         style="fill:#001c41;fill-opacity:1;fill-rule:nonzero;stroke:none"
         id="path94" />
      <path
         d="m 3028.91,2755.9 591.1,-438.4 -438.42,591.1 438.42,591.1 -591.1,-438.5 -591.1,438.5 438.42,-591.1 -438.42,-591.1 591.1,438.4"
         style="fill:#001c41;fill-opacity:1;fill-rule:nonzero;stroke:none"
         id="path96" />
      <path
         d="m 7395.19,2684.9 974.28,223.7 -974.28,223.5 -223.59,974.3 -223.58,-974.3 -974.29,-223.5 974.29,-223.7 223.58,-974.3 223.59,974.3"
         style="fill:#001c41;fill-opacity:1;fill-rule:nonzero;stroke:none"
         id="path98" />
      <path
         d="m 11314.1,2461.3 1198,-750.5 -750.7,1197.8 750.7,1197.8 -1197.8,-750.7 -1197.9,750.7 750.5,-1197.9 -750.5,-1197.8 1197.7,750.6"
         style="fill:#001c41;fill-opacity:1;fill-rule:nonzero;stroke:none"
         id="path100" />
      <path
         d="m 19471.1,4076.4 192.4,-829.5 768.1,366.8 -528.4,-667.4 765.7,-372 -851.4,-2.9 186.7,-830.7 -533.1,663.9 -533,-663.9 186.7,830.7 -851.6,2.9 765.8,372 -528.3,667.4 768.1,-366.8 192.3,829.5"
         style="fill:#001c41;fill-opacity:1;fill-rule:nonzero;stroke:none"
         id="path102" />
      <path
         d="m 15960.7,1731.3 -524,275.5 -542.2,-237.9 -111.3,581.4 -524.1,275.5 385.3,449.7 -111.4,581.5 591.6,-20.9 385.3,449.7 352.6,-475.6 591.7,-20.8 -152,-572.3 352.6,-475.6 -542.1,-238 -152,-572.2"
         style="fill:#001c41;fill-opacity:1;fill-rule:nonzero;stroke:none"
         id="path104" />
    </g>
  </g>
</svg>
