<?xml version="1.0" encoding="UTF-8" standalone="no"?>
<!-- Created with Inkscape (http://www.inkscape.org/) -->

<svg
   version="1.1"
   id="svg2"
   width="73.106819"
   height="73.078674"
   viewBox="0 0 73.106819 73.078674"
   sodipodi:docname="42456.eps"
   xmlns:inkscape="http://www.inkscape.org/namespaces/inkscape"
   xmlns:sodipodi="http://sodipodi.sourceforge.net/DTD/sodipodi-0.dtd"
   xmlns="http://www.w3.org/2000/svg"
   xmlns:svg="http://www.w3.org/2000/svg">
  <defs
     id="defs6">
    <clipPath
       clipPathUnits="userSpaceOnUse"
       id="clipPath1338">
      <path
         d="m 845.449,3487.43 c 26.594,-0.03 48.281,-21.62 48.34,-48.31 l 0.762,-391.13 c 0.051,-26.6 -21.563,-48.23 -48.164,-48.21 l -391.024,0.45 c -26.691,0.03 -48.293,21.71 -48.351,48.32 l -0.762,390.62 c -0.051,26.68 21.484,48.23 48.164,48.21 l 391.035,0.05"
         id="path1336" />
    </clipPath>
  </defs>
  <sodipodi:namedview
     id="namedview4"
     pagecolor="#ffffff"
     bordercolor="#000000"
     borderopacity="0.25"
     inkscape:showpageshadow="2"
     inkscape:pageopacity="0.0"
     inkscape:pagecheckerboard="0"
     inkscape:deskcolor="#d1d1d1"
     showgrid="false" />
  <g
     id="g10"
     inkscape:groupmode="layer"
     inkscape:label="Page 1"
     transform="matrix(1.3333333,0,0,-1.3333333,-69.833382,419.72356)">
    <g
       id="g12"
       transform="matrix(0.1,0,0,0.1,17.750047,-33.972335)">
      <path
         d="m 846.422,2939.56 c -0.012,0 -0.024,0 -0.035,0 l -451.035,0.45 c -26.68,0.04 -48.282,21.72 -48.34,48.32 l -0.762,451.11 c -0.059,26.68 21.449,48.21 48.094,48.21 0.023,0 0.047,0 0.07,0 h 0.34 c -26.559,-0.1 -47.969,-21.59 -47.906,-48.21 l 0.757,-450.51 c 0.063,-26.61 21.665,-48.29 48.344,-48.32 l 450.438,-0.45 c 0.011,0 0.023,0 0.035,0 26.484,0 48.008,21.47 48.129,47.92 v -0.3 c 0.039,-26.59 -21.543,-48.22 -48.129,-48.22"
         style="fill:#464648;fill-opacity:1;fill-rule:nonzero;stroke:none"
         id="path1126"
         inkscape:export-filename="./path1126.svg"
         inkscape:export-xdpi="96"
         inkscape:export-ydpi="96" />
      <path
         d="m 846.422,2940.16 c -0.012,0 -0.024,0 -0.035,0 l -450.438,0.45 c -26.679,0.03 -48.281,21.71 -48.344,48.32 l -0.757,450.51 c -0.063,26.62 21.347,48.11 47.906,48.21 0.062,0 0.125,0 0.184,0 0.027,0 0.046,0 0.074,0 h 0.336 c -26.563,-0.1 -47.969,-21.59 -47.91,-48.21 l 0.761,-449.92 c 0.059,-26.61 21.66,-48.28 48.34,-48.32 l 449.848,-0.45 c 0.011,0 0.023,0 0.035,0 26.484,0 48.008,21.47 48.129,47.92 v -0.29 c 0,-0.1 0,-0.2 0,-0.3 -0.121,-26.45 -21.645,-47.92 -48.129,-47.92"
         style="fill:#464648;fill-opacity:1;fill-rule:nonzero;stroke:none"
         id="path1128" />
      <path
         d="m 846.422,2940.75 c -0.012,0 -0.024,0 -0.035,0 l -449.848,0.45 c -26.68,0.04 -48.281,21.71 -48.34,48.32 l -0.761,449.92 c -0.059,26.62 21.347,48.11 47.91,48.21 0.058,0 0.121,0 0.183,0 0.024,0 0.043,0 0.071,0 h 0.339 c -26.558,-0.1 -47.968,-21.59 -47.91,-48.21 l 0.762,-449.33 c 0.059,-26.6 21.66,-48.28 48.34,-48.32 l 449.254,-0.45 c 0.011,0 0.023,0 0.035,0 26.484,0 48.008,21.47 48.129,47.93 v -0.3 c 0,-0.1 0,-0.2 0,-0.3 -0.121,-26.45 -21.645,-47.92 -48.129,-47.92"
         style="fill:#464648;fill-opacity:1;fill-rule:nonzero;stroke:none"
         id="path1130" />
      <path
         d="m 846.422,2941.34 c -0.012,0 -0.024,0 -0.035,0 l -449.254,0.45 c -26.68,0.04 -48.281,21.72 -48.34,48.32 l -0.762,449.33 c -0.058,26.62 21.352,48.11 47.91,48.21 0.063,0 0.122,0 0.184,0 0.023,0 0.047,0 0.07,0 h 0.34 c -26.558,-0.1 -47.965,-21.59 -47.906,-48.21 l 0.762,-448.73 c 0.058,-26.6 21.66,-48.28 48.339,-48.32 l 448.657,-0.45 c 0.011,0 0.023,0 0.035,0 26.484,0 48.008,21.47 48.129,47.92 v -0.29 c 0,-0.1 0,-0.2 0,-0.3 -0.121,-26.46 -21.645,-47.93 -48.129,-47.93"
         style="fill:#464648;fill-opacity:1;fill-rule:nonzero;stroke:none"
         id="path1132" />
      <path
         d="m 846.422,2941.94 c -0.012,0 -0.024,0 -0.035,0 l -448.657,0.45 c -26.679,0.04 -48.281,21.72 -48.339,48.32 l -0.762,448.73 c -0.059,26.62 21.348,48.11 47.906,48.21 0.063,0 0.125,0 0.188,0 0.023,0 0.047,0 0.07,0 h 0.336 c -26.559,-0.1 -47.969,-21.59 -47.91,-48.21 l 0.761,-448.14 c 0.059,-26.6 21.661,-48.28 48.34,-48.32 l 448.067,-0.45 c 0.011,0 0.023,0 0.035,0 26.484,0 48.008,21.47 48.129,47.92 v -0.29 c 0,-0.1 0,-0.2 0,-0.3 -0.121,-26.45 -21.645,-47.92 -48.129,-47.92"
         style="fill:#464648;fill-opacity:1;fill-rule:nonzero;stroke:none"
         id="path1134" />
      <path
         d="m 846.422,2942.53 c -0.012,0 -0.024,0 -0.035,0 l -448.067,0.45 c -26.679,0.04 -48.281,21.72 -48.34,48.32 l -0.761,448.14 c -0.059,26.62 21.351,48.11 47.91,48.21 0.062,0 0.121,0 0.184,0 0.023,0 0.046,0 0.07,0 h 0.34 c -26.559,-0.1 -47.965,-21.59 -47.91,-48.21 l 0.765,-447.55 c 0.059,-26.6 21.656,-48.28 48.34,-48.32 l 447.469,-0.45 c 0.011,0 0.023,0 0.035,0 26.484,0 48.008,21.48 48.129,47.93 v -0.3 c 0,-0.1 0,-0.2 0,-0.3 -0.121,-26.45 -21.645,-47.92 -48.129,-47.92"
         style="fill:#464648;fill-opacity:1;fill-rule:nonzero;stroke:none"
         id="path1136" />
      <path
         d="m 846.422,2943.12 c -0.012,0 -0.024,0 -0.035,0 l -447.469,0.45 c -26.684,0.04 -48.281,21.72 -48.34,48.32 l -0.765,447.55 c -0.055,26.62 21.351,48.11 47.91,48.21 0.062,0 0.125,0 0.183,0 0.028,0 0.047,0 0.074,0 h 0.34 c -26.562,-0.1 -47.968,-21.59 -47.91,-48.21 l 0.762,-446.95 c 0.058,-26.6 21.66,-48.28 48.34,-48.32 l 446.875,-0.45 c 0.011,0 0.023,0 0.035,0 26.484,0 48.008,21.47 48.129,47.92 v -0.29 c 0,-0.1 0,-0.2 0,-0.3 -0.121,-26.45 -21.645,-47.93 -48.129,-47.93"
         style="fill:#464648;fill-opacity:1;fill-rule:nonzero;stroke:none"
         id="path1138" />
      <path
         d="m 846.422,2943.72 c -0.012,0 -0.024,0 -0.035,0 l -446.875,0.45 c -26.68,0.04 -48.282,21.72 -48.34,48.32 l -0.762,446.95 c -0.058,26.62 21.348,48.11 47.91,48.21 0.063,0 0.121,0 0.184,0 0.023,0 0.047,0 0.07,0 h 0.336 c -26.558,-0.1 -47.969,-21.59 -47.91,-48.21 l 0.762,-446.36 c 0.058,-26.6 21.66,-48.28 48.34,-48.32 l 446.285,-0.45 c 0.011,0 0.023,0 0.035,0 26.484,0 48.008,21.47 48.129,47.93 v -0.3 c 0,-0.1 0,-0.2 0,-0.3 -0.121,-26.45 -21.645,-47.92 -48.129,-47.92"
         style="fill:#464648;fill-opacity:1;fill-rule:nonzero;stroke:none"
         id="path1140" />
      <path
         d="m 846.422,2944.31 c -0.012,0 -0.024,0 -0.035,0 l -446.285,0.45 c -26.68,0.04 -48.282,21.72 -48.34,48.32 L 351,3439.44 c -0.059,26.62 21.352,48.11 47.91,48.21 0.063,0 0.121,0 0.184,0 0.023,0 0.047,0 0.07,0 h 0.34 c -26.559,-0.1 -47.965,-21.59 -47.906,-48.21 l 0.761,-445.76 c 0.059,-26.61 21.661,-48.28 48.34,-48.32 l 445.688,-0.45 c 0.011,0 0.023,0 0.035,0 26.484,0 48.004,21.47 48.129,47.92 v -0.3 c 0,-0.09 0,-0.19 0,-0.29 -0.121,-26.46 -21.645,-47.93 -48.129,-47.93"
         style="fill:#464648;fill-opacity:1;fill-rule:nonzero;stroke:none"
         id="path1142" />
      <path
         d="m 846.422,2944.91 c -0.012,0 -0.024,0 -0.035,0 l -445.688,0.45 c -26.679,0.04 -48.281,21.71 -48.34,48.32 l -0.761,445.76 c -0.059,26.62 21.347,48.11 47.906,48.21 0.062,0 0.125,0 0.187,0 0.024,0 0.043,0 0.071,0 h 0.34 c -26.563,-0.1 -47.969,-21.59 -47.911,-48.21 l 0.762,-445.17 c 0.059,-26.6 21.66,-48.28 48.34,-48.32 l 445.094,-0.45 c 0.011,0 0.023,0 0.035,0 26.484,0 48.004,21.48 48.129,47.93 v -0.3 c 0,-0.1 0,-0.2 0,-0.3 -0.125,-26.45 -21.645,-47.92 -48.129,-47.92"
         style="fill:#464648;fill-opacity:1;fill-rule:nonzero;stroke:none"
         id="path1144" />
      <path
         d="m 846.422,2945.5 c -0.012,0 -0.024,0 -0.035,0 l -445.094,0.45 c -26.68,0.04 -48.281,21.72 -48.34,48.32 l -0.762,445.17 c -0.058,26.62 21.348,48.11 47.911,48.21 0.062,0 0.121,0 0.183,0 0.024,0 0.047,0 0.07,0 h 0.336 c -26.558,-0.1 -47.964,-21.59 -47.906,-48.21 l 0.762,-444.58 c 0.058,-26.6 21.656,-48.28 48.336,-48.32 l 444.504,-0.45 c 0.011,0 0.023,0 0.039,0 26.484,0 48.004,21.48 48.125,47.93 v -0.29 c 0,-0.1 0,-0.2 0,-0.3 -0.125,-26.45 -21.645,-47.93 -48.129,-47.93"
         style="fill:#464648;fill-opacity:1;fill-rule:nonzero;stroke:none"
         id="path1146" />
      <path
         d="m 846.426,2946.09 c -0.016,0 -0.028,0 -0.039,0 l -444.504,0.45 c -26.68,0.04 -48.278,21.72 -48.336,48.32 l -0.762,444.58 c -0.058,26.62 21.348,48.11 47.906,48.21 0.063,0 0.122,0 0.184,0 0.023,0 0.047,0 0.07,0 h 0.34 c -26.558,-0.1 -47.965,-21.59 -47.906,-48.21 l 0.762,-443.98 c 0.058,-26.6 21.66,-48.28 48.339,-48.32 l 443.907,-0.45 c 0.011,0 0.023,0 0.035,0 26.484,0 48.004,21.47 48.129,47.92 v -0.29 c 0,-0.1 0,-0.2 0,-0.3 -0.121,-26.45 -21.641,-47.93 -48.125,-47.93"
         style="fill:#454547;fill-opacity:1;fill-rule:nonzero;stroke:none"
         id="path1148" />
      <path
         d="m 846.422,2946.69 c -0.012,0 -0.024,0 -0.035,0 l -443.907,0.45 c -26.679,0.04 -48.281,21.72 -48.339,48.32 l -0.762,443.98 c -0.059,26.62 21.348,48.11 47.906,48.21 0.063,0 0.125,0 0.188,0 0.023,0 0.047,0 0.07,0 h 0.34 c -26.559,-0.1 -47.965,-21.59 -47.91,-48.21 l 0.761,-443.39 c 0.059,-26.6 21.664,-48.28 48.34,-48.32 l 443.313,-0.44 c 0.011,0 0.023,0 0.035,0 26.484,0 48.004,21.47 48.129,47.92 v -0.3 c 0,-0.1 0,-0.2 0,-0.3 -0.125,-26.45 -21.645,-47.92 -48.129,-47.92"
         style="fill:#454547;fill-opacity:1;fill-rule:nonzero;stroke:none"
         id="path1150" />
      <path
         d="m 846.422,2947.29 c -0.012,0 -0.024,0 -0.035,0 l -443.313,0.44 c -26.676,0.04 -48.281,21.72 -48.34,48.32 l -0.761,443.39 c -0.055,26.62 21.351,48.11 47.91,48.21 0.062,0 0.125,0 0.183,0 0.028,0 0.047,0 0.075,0 h 0.332 c -26.559,-0.1 -47.965,-21.59 -47.907,-48.21 l 0.762,-442.79 c 0.059,-26.61 21.66,-48.29 48.34,-48.33 l 442.719,-0.44 c 0.011,0 0.023,0 0.039,0 26.484,0 48.004,21.47 48.125,47.92 v -0.29 c 0,-0.1 0,-0.2 0,-0.3 -0.125,-26.45 -21.645,-47.92 -48.129,-47.92"
         style="fill:#454547;fill-opacity:1;fill-rule:nonzero;stroke:none"
         id="path1152" />
      <path
         d="m 846.426,2947.88 c -0.016,0 -0.028,0 -0.039,0 l -442.719,0.44 c -26.68,0.04 -48.281,21.72 -48.34,48.33 l -0.762,442.79 c -0.058,26.62 21.348,48.11 47.907,48.21 0.062,0 0.125,0 0.183,0 0.028,0 0.047,0 0.074,0 h 0.34 c -26.562,-0.1 -47.968,-21.59 -47.91,-48.21 l 0.762,-442.2 c 0.058,-26.6 21.66,-48.28 48.34,-48.32 l 442.125,-0.45 c 0.011,0 0.023,0 0.035,0 26.484,0 48.004,21.47 48.129,47.92 v -0.29 c 0,-0.1 0,-0.2 0,-0.3 -0.121,-26.45 -21.641,-47.92 -48.125,-47.92"
         style="fill:#454547;fill-opacity:1;fill-rule:nonzero;stroke:none"
         id="path1154" />
      <path
         d="m 846.422,2948.47 c -0.012,0 -0.024,0 -0.035,0 l -442.125,0.45 c -26.68,0.04 -48.282,21.72 -48.34,48.32 l -0.762,442.2 c -0.058,26.62 21.348,48.11 47.91,48.21 0.063,0 0.121,0 0.184,0 0.023,0 0.047,0 0.07,0 h 0.34 c -26.559,-0.1 -47.965,-21.59 -47.906,-48.21 l 0.762,-441.6 c 0.058,-26.6 21.66,-48.28 48.339,-48.32 l 441.528,-0.45 c 0.011,0 0.023,0 0.035,0 26.484,0 48.004,21.47 48.129,47.92 v -0.3 c 0,-0.1 0,-0.2 0,-0.3 -0.125,-26.45 -21.645,-47.92 -48.129,-47.92"
         style="fill:#454547;fill-opacity:1;fill-rule:nonzero;stroke:none"
         id="path1156" />
      <path
         d="m 846.422,2949.07 c -0.012,0 -0.024,0 -0.035,0 l -441.528,0.45 c -26.679,0.04 -48.281,21.72 -48.339,48.32 l -0.762,441.6 c -0.059,26.62 21.347,48.11 47.906,48.21 0.063,0 0.125,0 0.188,0 0.023,0 0.046,0 0.07,0 h 0.336 c -26.563,-0.1 -47.969,-21.59 -47.91,-48.21 l 0.761,-441.01 c 0.059,-26.6 21.661,-48.28 48.34,-48.32 l 440.938,-0.45 c 0.011,0 0.023,0 0.039,0 26.484,0 48.004,21.47 48.125,47.92 v -0.29 c 0,-0.1 0,-0.2 0,-0.3 -0.125,-26.45 -21.645,-47.92 -48.129,-47.92"
         style="fill:#444446;fill-opacity:1;fill-rule:nonzero;stroke:none"
         id="path1158" />
      <path
         d="m 846.426,2949.66 c -0.016,0 -0.028,0 -0.039,0 l -440.938,0.45 c -26.679,0.04 -48.281,21.72 -48.34,48.32 l -0.761,441.01 c -0.059,26.62 21.347,48.11 47.91,48.21 0.058,0 0.121,0 0.183,0 0.024,0 0.047,0 0.071,0 h 0.34 c -26.559,-0.1 -47.965,-21.59 -47.907,-48.21 l 0.758,-440.42 c 0.063,-26.6 21.66,-48.28 48.344,-48.32 l 440.34,-0.45 c 0.011,0 0.023,0 0.035,0 26.484,0 48.004,21.48 48.129,47.93 v -0.3 c 0,-0.1 0,-0.2 0,-0.3 -0.121,-26.45 -21.641,-47.92 -48.125,-47.92"
         style="fill:#444446;fill-opacity:1;fill-rule:nonzero;stroke:none"
         id="path1160" />
      <path
         d="m 846.422,2950.25 c -0.012,0 -0.024,0 -0.035,0 l -440.34,0.45 c -26.684,0.04 -48.281,21.72 -48.344,48.32 l -0.758,440.42 c -0.058,26.62 21.348,48.11 47.907,48.21 0.062,0 0.121,0 0.183,0 0.028,0 0.047,0 0.07,0 h 0.34 c -26.558,-0.1 -47.965,-21.59 -47.906,-48.21 l 0.762,-439.82 c 0.058,-26.6 21.66,-48.28 48.34,-48.32 l 439.746,-0.45 c 0.011,0 0.023,0 0.035,0 26.484,0 48.004,21.47 48.129,47.92 v -0.29 c 0,-0.1 0,-0.2 0,-0.3 -0.125,-26.45 -21.645,-47.93 -48.129,-47.93"
         style="fill:#444446;fill-opacity:1;fill-rule:nonzero;stroke:none"
         id="path1162" />
      <path
         d="m 846.422,2950.85 c -0.012,0 -0.024,0 -0.035,0 l -439.746,0.45 c -26.68,0.04 -48.282,21.72 -48.34,48.32 l -0.762,439.82 c -0.059,26.62 21.348,48.11 47.906,48.21 0.063,0 0.125,0 0.188,0 0.023,0 0.047,0 0.07,0 h 0.336 c -26.562,-0.1 -47.969,-21.59 -47.91,-48.21 l 0.762,-439.23 c 0.058,-26.6 21.66,-48.28 48.339,-48.32 l 439.157,-0.45 c 0.011,0 0.023,0 0.039,0 26.484,0 48.004,21.47 48.125,47.92 v -0.29 c 0,-0.1 0,-0.2 0,-0.3 -0.125,-26.45 -21.645,-47.92 -48.129,-47.92"
         style="fill:#444446;fill-opacity:1;fill-rule:nonzero;stroke:none"
         id="path1164" />
      <path
         d="m 846.426,2951.44 c -0.016,0 -0.028,0 -0.039,0 l -439.157,0.45 c -26.679,0.04 -48.281,21.72 -48.339,48.32 l -0.762,439.23 c -0.059,26.62 21.348,48.11 47.91,48.21 0.063,0 0.121,0 0.184,0 0.023,0 0.047,0 0.07,0 h 0.34 c -26.559,-0.1 -47.965,-21.59 -47.906,-48.21 l 0.761,-438.63 c 0.059,-26.61 21.66,-48.29 48.34,-48.32 l 438.559,-0.45 c 0.011,0 0.023,0 0.035,0 26.484,0 48.004,21.47 48.129,47.92 v -0.3 c 0,-0.1 0,-0.2 0,-0.3 -0.121,-26.45 -21.641,-47.92 -48.125,-47.92"
         style="fill:#444446;fill-opacity:1;fill-rule:nonzero;stroke:none"
         id="path1166" />
      <path
         d="m 846.422,2952.04 c -0.012,0 -0.024,0 -0.035,0 l -438.559,0.45 c -26.68,0.03 -48.281,21.71 -48.34,48.32 l -0.761,438.63 c -0.059,26.62 21.347,48.11 47.906,48.21 0.062,0 0.125,0 0.183,0 0.028,0 0.047,0 0.075,0 h 0.339 c -26.562,-0.1 -47.968,-21.59 -47.91,-48.21 l 0.762,-438.04 c 0.059,-26.6 21.66,-48.28 48.34,-48.32 l 437.965,-0.45 c 0.011,0 0.023,0 0.035,0 26.484,0 48.004,21.47 48.129,47.92 v -0.29 c 0,-0.1 0,-0.2 0,-0.3 -0.125,-26.45 -21.645,-47.92 -48.129,-47.92"
         style="fill:#444446;fill-opacity:1;fill-rule:nonzero;stroke:none"
         id="path1168" />
      <path
         d="m 846.422,2952.63 c -0.012,0 -0.024,0 -0.035,0 l -437.965,0.45 c -26.68,0.04 -48.281,21.72 -48.34,48.32 l -0.762,438.04 c -0.058,26.62 21.348,48.11 47.91,48.21 0.059,0 0.122,0 0.184,0 0.024,0 0.047,0 0.07,0 h 0.336 c -26.558,-0.1 -47.965,-21.59 -47.91,-48.21 l 0.766,-437.45 c 0.054,-26.6 21.656,-48.28 48.34,-48.32 l 437.371,-0.45 c 0.011,0 0.023,0 0.039,0 26.484,0 48.004,21.47 48.125,47.93 v -0.3 c 0,-0.1 0,-0.2 0,-0.3 -0.125,-26.45 -21.645,-47.92 -48.129,-47.92"
         style="fill:#434345;fill-opacity:1;fill-rule:nonzero;stroke:none"
         id="path1170" />
      <path
         d="m 846.426,2953.22 c -0.016,0 -0.028,0 -0.039,0 l -437.371,0.45 c -26.684,0.04 -48.286,21.72 -48.34,48.32 l -0.766,437.45 c -0.055,26.62 21.352,48.11 47.91,48.21 0.063,0 0.121,0 0.184,0 0.023,0 0.047,0 0.07,0 h 0.34 c -26.559,-0.1 -47.965,-21.59 -47.906,-48.21 l 0.762,-436.85 c 0.058,-26.6 21.66,-48.28 48.339,-48.32 l 436.778,-0.45 c 0.011,0 0.023,0 0.039,0 26.48,0 48,21.47 48.125,47.92 v -0.29 c 0,-0.1 0,-0.21 0,-0.3 -0.121,-26.46 -21.641,-47.93 -48.125,-47.93"
         style="fill:#434345;fill-opacity:1;fill-rule:nonzero;stroke:none"
         id="path1172" />
      <path
         d="m 846.426,2953.82 c -0.016,0 -0.028,0 -0.039,0 l -436.778,0.45 c -26.679,0.04 -48.281,21.72 -48.339,48.32 l -0.762,436.85 c -0.059,26.62 21.347,48.11 47.906,48.21 0.063,0 0.125,0 0.188,0 0.023,0 0.046,0 0.07,0 h 0.34 c -26.563,-0.1 -47.965,-21.59 -47.907,-48.21 l 0.762,-436.26 c 0.059,-26.6 21.656,-48.28 48.336,-48.32 l 436.184,-0.45 c 0.011,0 0.023,0 0.035,0 26.484,0 48.004,21.48 48.129,47.93 v -0.3 c 0,-0.1 0,-0.2 0,-0.3 -0.125,-26.45 -21.645,-47.92 -48.125,-47.92"
         style="fill:#434345;fill-opacity:1;fill-rule:nonzero;stroke:none"
         id="path1174" />
      <path
         d="m 846.422,2954.41 c -0.012,0 -0.024,0 -0.035,0 l -436.184,0.45 c -26.68,0.04 -48.277,21.72 -48.336,48.32 l -0.762,436.26 c -0.058,26.62 21.344,48.11 47.907,48.21 0.062,0 0.125,0 0.183,0 0.028,0 0.047,0 0.075,0 h 0.332 c -26.559,-0.1 -47.965,-21.59 -47.907,-48.21 l 0.762,-435.67 c 0.059,-26.6 21.66,-48.28 48.34,-48.32 l 435.59,-0.44 c 0.011,0 0.023,0 0.039,0 26.48,0 48,21.47 48.125,47.92 v -0.29 c 0,-0.1 0,-0.2 0,-0.3 -0.125,-26.45 -21.645,-47.93 -48.129,-47.93"
         style="fill:#434244;fill-opacity:1;fill-rule:nonzero;stroke:none"
         id="path1176" />
      <path
         d="m 846.426,2955.01 c -0.016,0 -0.028,0 -0.039,0 l -435.59,0.44 c -26.68,0.04 -48.281,21.72 -48.34,48.32 l -0.762,435.67 c -0.058,26.62 21.348,48.11 47.907,48.21 0.062,0 0.125,0 0.183,0 0.028,0 0.047,0 0.074,0 h 0.336 c -26.558,-0.1 -47.965,-21.59 -47.906,-48.21 l 0.762,-435.07 c 0.058,-26.6 21.66,-48.28 48.34,-48.32 l 434.996,-0.45 c 0.011,0 0.023,0 0.039,0 26.48,0 48,21.47 48.125,47.92 v -0.29 c 0,-0.1 0,-0.2 0,-0.3 -0.125,-26.45 -21.645,-47.92 -48.125,-47.92"
         style="fill:#434244;fill-opacity:1;fill-rule:nonzero;stroke:none"
         id="path1178" />
      <path
         d="m 846.426,2955.6 c -0.016,0 -0.028,0 -0.039,0 l -434.996,0.45 c -26.68,0.04 -48.282,21.72 -48.34,48.32 l -0.762,435.07 c -0.059,26.62 21.348,48.11 47.906,48.21 0.063,0 0.125,0 0.188,0 0.023,0 0.047,0 0.07,0 h 0.34 c -26.559,-0.1 -47.965,-21.59 -47.906,-48.21 l 0.761,-434.47 c 0.059,-26.61 21.661,-48.29 48.34,-48.32 l 434.399,-0.45 c 0.011,0 0.023,0 0.035,0 26.484,0 48.004,21.47 48.129,47.92 v -0.3 c 0,-0.1 0,-0.2 0,-0.3 -0.125,-26.45 -21.645,-47.92 -48.125,-47.92"
         style="fill:#434244;fill-opacity:1;fill-rule:nonzero;stroke:none"
         id="path1180" />
      <path
         d="m 846.422,2956.2 c -0.012,0 -0.024,0 -0.035,0 l -434.399,0.45 c -26.679,0.03 -48.281,21.71 -48.34,48.32 l -0.761,434.47 c -0.059,26.62 21.347,48.11 47.906,48.21 0.062,0 0.125,0 0.187,0 0.024,0 0.043,0 0.071,0 h 0.332 c -26.559,-0.1 -47.965,-21.59 -47.906,-48.21 l 0.761,-433.88 c 0.059,-26.6 21.66,-48.28 48.34,-48.32 l 433.809,-0.45 c 0.011,0 0.023,0 0.035,0 26.484,0 48.004,21.47 48.129,47.92 v -0.29 c 0,-0.1 0,-0.2 0,-0.3 -0.125,-26.45 -21.645,-47.92 -48.129,-47.92"
         style="fill:#434244;fill-opacity:1;fill-rule:nonzero;stroke:none"
         id="path1182" />
      <path
         d="m 846.422,2956.79 c -0.012,0 -0.024,0 -0.035,0 l -433.809,0.45 c -26.68,0.04 -48.281,21.72 -48.34,48.32 l -0.761,433.88 c -0.059,26.62 21.347,48.11 47.906,48.21 0.062,0 0.125,0 0.187,0 0.024,0 0.047,0 0.071,0 h 0.339 c -26.562,-0.1 -47.964,-21.59 -47.91,-48.21 l 0.766,-433.29 c 0.059,-26.6 21.656,-48.28 48.336,-48.32 l 433.215,-0.45 c 0.011,0 0.023,0 0.039,0 26.48,0 48,21.47 48.125,47.92 v -0.29 c 0,-0.1 0,-0.2 0,-0.3 -0.125,-26.45 -21.645,-47.92 -48.129,-47.92"
         style="fill:#424143;fill-opacity:1;fill-rule:nonzero;stroke:none"
         id="path1184" />
      <path
         d="m 846.426,2957.38 c -0.016,0 -0.028,0 -0.039,0 l -433.215,0.45 c -26.68,0.04 -48.277,21.72 -48.336,48.32 l -0.766,433.29 c -0.054,26.62 21.348,48.11 47.91,48.21 0.063,0 0.122,0 0.184,0 0.024,0 0.047,0 0.07,0 h 0.34 c -26.558,-0.1 -47.965,-21.59 -47.906,-48.21 l 0.762,-432.69 c 0.058,-26.6 21.66,-48.28 48.34,-48.32 l 432.617,-0.45 c 0.011,0 0.023,0 0.035,0 26.484,0 48.004,21.47 48.129,47.92 v -0.29 c 0,-0.11 0,-0.21 0,-0.31 -0.125,-26.45 -21.645,-47.92 -48.125,-47.92"
         style="fill:#424143;fill-opacity:1;fill-rule:nonzero;stroke:none"
         id="path1186" />
      <path
         d="m 846.422,2957.98 c -0.012,0 -0.024,0 -0.035,0 l -432.617,0.45 c -26.68,0.04 -48.282,21.72 -48.34,48.32 l -0.762,432.69 c -0.059,26.62 21.348,48.11 47.906,48.21 0.063,0 0.125,0 0.188,0 0.023,0 0.047,0 0.07,0 h 0.336 c -26.563,-0.1 -47.969,-21.59 -47.91,-48.21 l 0.762,-432.1 c 0.058,-26.6 21.66,-48.28 48.339,-48.32 l 432.028,-0.45 c 0.011,0 0.023,0 0.035,0 26.484,0 48.004,21.47 48.129,47.92 v -0.29 c 0,-0.1 0,-0.2 0,-0.3 -0.125,-26.45 -21.645,-47.92 -48.129,-47.92"
         style="fill:#414042;fill-opacity:1;fill-rule:nonzero;stroke:none"
         id="path1188" />
      <path
         d="m 846.422,2958.57 c -0.012,0 -0.024,0 -0.035,0 l -432.028,0.45 c -26.679,0.04 -48.281,21.72 -48.339,48.32 l -0.762,432.1 c -0.059,26.62 21.347,48.11 47.91,48.21 0.062,0 0.121,0 0.184,0 0.027,0 0.046,0 0.07,0 h 0.34 c -26.563,-0.1 -47.965,-21.59 -47.907,-48.21 l 0.762,-431.5 c 0.059,-26.61 21.66,-48.29 48.34,-48.33 l 431.43,-0.44 c 0.011,0 0.023,0 0.039,0 26.48,0 48,21.46 48.125,47.91 v -0.29 c 0,-0.1 0,-0.2 0,-0.3 -0.125,-26.45 -21.645,-47.92 -48.129,-47.92"
         style="fill:#414042;fill-opacity:1;fill-rule:nonzero;stroke:none"
         id="path1190" />
      <path
         d="m 846.426,2959.17 c -0.016,0 -0.028,0 -0.039,0 l -431.43,0.44 c -26.68,0.04 -48.281,21.72 -48.34,48.33 l -0.762,431.5 c -0.058,26.62 21.344,48.11 47.907,48.21 0.062,0 0.125,0 0.183,0 0.028,0 0.047,0 0.075,0 h 0.335 c -26.558,-0.1 -47.964,-21.59 -47.906,-48.21 l 0.762,-430.91 c 0.059,-26.6 21.66,-48.28 48.34,-48.32 l 430.836,-0.45 c 0.011,0 0.023,0 0.035,0 26.484,0 48.004,21.47 48.129,47.92 v -0.29 c 0,-0.1 0,-0.2 0,-0.31 -0.125,-26.45 -21.645,-47.91 -48.125,-47.91"
         style="fill:#414042;fill-opacity:1;fill-rule:nonzero;stroke:none"
         id="path1192" />
      <path
         d="m 846.422,2959.76 c -0.012,0 -0.024,0 -0.035,0 l -430.836,0.45 c -26.68,0.04 -48.281,21.72 -48.34,48.32 l -0.762,430.91 c -0.058,26.62 21.348,48.11 47.906,48.21 0.063,0 0.125,0 0.188,0 0.023,0 0.047,0 0.07,0 h 0.336 c -26.562,-0.1 -47.969,-21.59 -47.906,-48.21 l 0.758,-430.32 c 0.058,-26.6 21.664,-48.28 48.344,-48.32 l 430.242,-0.45 c 0.011,0 0.023,0 0.035,0 26.484,0 48.004,21.47 48.129,47.92 v -0.29 c 0,-0.1 0,-0.2 0,-0.3 -0.125,-26.45 -21.645,-47.92 -48.129,-47.92"
         style="fill:#403f41;fill-opacity:1;fill-rule:nonzero;stroke:none"
         id="path1194" />
      <path
         d="m 846.422,2960.35 c -0.012,0 -0.024,0 -0.035,0 l -430.242,0.45 c -26.68,0.04 -48.286,21.72 -48.344,48.32 l -0.758,430.32 c -0.063,26.62 21.344,48.11 47.906,48.21 0.063,0 0.125,0 0.188,0 0.023,0 0.043,0 0.07,0 h 0.336 c -26.559,-0.1 -47.965,-21.59 -47.906,-48.21 l 0.761,-429.72 c 0.059,-26.6 21.661,-48.28 48.34,-48.32 l 429.649,-0.45 c 0.011,0 0.023,0 0.039,0 26.48,0 48,21.47 48.125,47.92 v -0.3 c 0,-0.1 0,-0.2 0,-0.3 -0.125,-26.45 -21.645,-47.92 -48.129,-47.92"
         style="fill:#403f41;fill-opacity:1;fill-rule:nonzero;stroke:none"
         id="path1196" />
      <path
         d="m 846.426,2960.95 c -0.016,0 -0.028,0 -0.039,0 l -429.649,0.45 c -26.679,0.04 -48.281,21.72 -48.34,48.32 l -0.761,429.72 c -0.059,26.62 21.347,48.11 47.906,48.21 0.062,0 0.125,0 0.187,0 0.024,0 0.047,0 0.071,0 h 0.34 c -26.563,-0.1 -47.965,-21.59 -47.907,-48.21 l 0.758,-429.13 c 0.063,-26.6 21.66,-48.28 48.344,-48.32 l 429.051,-0.45 c 0.011,0 0.023,0 0.039,0 26.48,0 48,21.47 48.125,47.92 v -0.29 c 0,-0.1 0,-0.2 0,-0.3 -0.125,-26.45 -21.645,-47.92 -48.125,-47.92"
         style="fill:#403f41;fill-opacity:1;fill-rule:nonzero;stroke:none"
         id="path1198" />
      <path
         d="m 846.426,2961.54 c -0.016,0 -0.028,0 -0.039,0 l -429.051,0.45 c -26.684,0.04 -48.281,21.72 -48.344,48.32 l -0.758,429.13 c -0.058,26.62 21.344,48.11 47.907,48.21 0.058,0 0.121,0 0.183,0 0.028,0 0.047,0 0.071,0 h 0.335 c -26.558,-0.1 -47.964,-21.59 -47.906,-48.21 l 0.762,-428.54 c 0.059,-26.6 21.66,-48.28 48.34,-48.32 l 428.461,-0.45 c 0.011,0 0.023,0 0.035,0 26.484,0 48.004,21.48 48.129,47.92 v -0.28 c 0,-0.1 0,-0.21 0,-0.31 -0.125,-26.45 -21.645,-47.92 -48.125,-47.92"
         style="fill:#3f3e40;fill-opacity:1;fill-rule:nonzero;stroke:none"
         id="path1200" />
      <path
         d="m 846.422,2962.13 c -0.012,0 -0.024,0 -0.035,0 l -428.461,0.45 c -26.68,0.04 -48.281,21.72 -48.34,48.32 l -0.762,428.54 c -0.058,26.62 21.348,48.11 47.906,48.21 0.063,0 0.125,0 0.188,0 0.023,0 0.047,0 0.07,0 h 0.336 c -26.558,-0.1 -47.965,-21.59 -47.906,-48.21 l 0.762,-427.94 c 0.058,-26.6 21.66,-48.28 48.34,-48.32 l 427.867,-0.45 c 0.011,0 0.023,0 0.039,0 26.48,0 48,21.47 48.125,47.92 v -0.29 c 0,-0.1 0,-0.2 0,-0.31 -0.125,-26.44 -21.645,-47.92 -48.129,-47.92"
         style="fill:#3f3e40;fill-opacity:1;fill-rule:nonzero;stroke:none"
         id="path1202" />
      <path
         d="m 846.426,2962.73 c -0.016,0 -0.028,0 -0.039,0 l -427.867,0.45 c -26.68,0.04 -48.282,21.72 -48.34,48.32 l -0.762,427.94 c -0.059,26.62 21.348,48.11 47.906,48.21 0.063,0 0.125,0 0.188,0 0.023,0 0.047,0 0.07,0 h 0.34 c -26.563,-0.1 -47.965,-21.59 -47.906,-48.21 l 0.761,-427.35 c 0.059,-26.6 21.661,-48.28 48.34,-48.32 l 427.27,-0.44 c 0.011,0 0.023,0 0.039,0 26.48,0 48,21.46 48.125,47.91 v -0.29 c 0,-0.1 0,-0.2 0,-0.3 -0.125,-26.45 -21.645,-47.92 -48.125,-47.92"
         style="fill:#3f3e40;fill-opacity:1;fill-rule:nonzero;stroke:none"
         id="path1204" />
      <path
         d="m 846.426,2963.33 c -0.016,0 -0.028,0 -0.039,0 l -427.27,0.44 c -26.679,0.04 -48.281,21.72 -48.34,48.32 l -0.761,427.35 c -0.059,26.62 21.343,48.11 47.906,48.21 0.058,0 0.125,0 0.183,0 0.028,0 0.047,0 0.075,0 h 0.332 c -26.559,-0.1 -47.965,-21.59 -47.907,-48.21 l 0.762,-426.75 c 0.059,-26.61 21.66,-48.29 48.34,-48.32 l 426.68,-0.45 c 0.011,0 0.023,0 0.035,0 26.484,0 48.004,21.47 48.129,47.92 v -0.29 c 0,-0.1 0,-0.21 0,-0.31 -0.125,-26.45 -21.645,-47.91 -48.125,-47.91"
         style="fill:#3e3c3f;fill-opacity:1;fill-rule:nonzero;stroke:none"
         id="path1206" />
      <path
         d="m 846.422,2963.92 c -0.012,0 -0.024,0 -0.035,0 l -426.68,0.45 c -26.68,0.03 -48.281,21.71 -48.34,48.32 l -0.762,426.75 c -0.058,26.62 21.348,48.11 47.907,48.21 0.062,0 0.125,0 0.187,0 0.024,0 0.047,0 0.071,0 h 0.335 c -26.558,-0.1 -47.96,-21.59 -47.906,-48.21 l 0.766,-426.16 c 0.055,-26.6 21.66,-48.28 48.34,-48.32 l 426.082,-0.45 c 0.011,0 0.023,0 0.035,0 26.484,0 48.004,21.47 48.129,47.92 v -0.29 c 0,-0.1 0,-0.2 0,-0.3 -0.125,-26.45 -21.645,-47.92 -48.129,-47.92"
         style="fill:#3d3c3e;fill-opacity:1;fill-rule:nonzero;stroke:none"
         id="path1208" />
      <path
         d="m 846.422,2964.51 c -0.012,0 -0.024,0 -0.035,0 l -426.082,0.45 c -26.68,0.04 -48.285,21.72 -48.34,48.32 l -0.766,426.16 c -0.054,26.62 21.348,48.11 47.906,48.21 0.063,0 0.125,0 0.188,0 0.023,0 0.047,0 0.07,0 h 0.34 c -26.562,-0.1 -47.965,-21.59 -47.906,-48.21 l 0.762,-425.56 c 0.058,-26.6 21.66,-48.28 48.339,-48.32 l 425.489,-0.45 c 0.011,0 0.023,0 0.039,0 26.48,0 48,21.47 48.125,47.92 v -0.3 c 0,-0.1 0,-0.2 0,-0.3 -0.125,-26.45 -21.645,-47.92 -48.129,-47.92"
         style="fill:#3d3c3e;fill-opacity:1;fill-rule:nonzero;stroke:none"
         id="path1210" />
      <path
         d="m 846.426,2965.11 c -0.016,0 -0.028,0 -0.039,0 l -425.489,0.45 c -26.679,0.04 -48.281,21.72 -48.339,48.32 l -0.762,425.56 c -0.059,26.62 21.344,48.11 47.906,48.21 0.063,0 0.125,0 0.188,0 0.023,0 0.047,0 0.07,0 h 0.336 c -26.563,-0.1 -47.969,-21.59 -47.91,-48.21 l 0.761,-424.97 c 0.059,-26.6 21.661,-48.28 48.34,-48.32 l 424.899,-0.45 c 0.011,0 0.023,0 0.035,0 26.484,0 48.004,21.47 48.129,47.92 v -0.29 c 0,-0.1 0,-0.2 0,-0.3 -0.125,-26.45 -21.645,-47.92 -48.125,-47.92"
         style="fill:#3c3b3e;fill-opacity:1;fill-rule:nonzero;stroke:none"
         id="path1212" />
      <path
         d="m 846.422,2965.7 c -0.012,0 -0.024,0 -0.035,0 l -424.899,0.45 c -26.679,0.04 -48.281,21.72 -48.34,48.32 l -0.761,424.97 c -0.059,26.62 21.347,48.11 47.91,48.21 0.058,0 0.121,0 0.183,0 0.024,0 0.047,0 0.071,0 h 0.34 c -26.563,-0.1 -47.965,-21.59 -47.907,-48.21 l 0.762,-424.38 c 0.059,-26.6 21.66,-48.28 48.34,-48.32 l 424.301,-0.45 c 0.011,0 0.023,0 0.035,0 26.484,0 48.004,21.47 48.129,47.92 v -0.29 c 0,-0.1 0,-0.2 0,-0.3 -0.125,-26.45 -21.645,-47.92 -48.129,-47.92"
         style="fill:#3c3b3d;fill-opacity:1;fill-rule:nonzero;stroke:none"
         id="path1214" />
      <path
         d="m 846.422,2966.29 c -0.012,0 -0.024,0 -0.035,0 l -424.301,0.45 c -26.68,0.04 -48.281,21.72 -48.34,48.32 l -0.762,424.38 c -0.058,26.62 21.344,48.11 47.907,48.21 0.058,0 0.125,0 0.187,0 0.024,0 0.047,0 0.07,0 h 0.336 c -26.558,-0.1 -47.964,-21.59 -47.906,-48.21 l 0.762,-423.78 c 0.058,-26.6 21.66,-48.28 48.34,-48.32 l 423.707,-0.45 c 0.011,0 0.023,0 0.039,0 26.48,0 47.996,21.47 48.125,47.92 v -0.29 c 0,-0.1 0,-0.21 0,-0.31 -0.125,-26.45 -21.645,-47.92 -48.129,-47.92"
         style="fill:#3b3b3c;fill-opacity:1;fill-rule:nonzero;stroke:none"
         id="path1216" />
      <path
         d="m 846.426,2966.89 c -0.016,0 -0.028,0 -0.039,0 l -423.707,0.45 c -26.68,0.04 -48.282,21.72 -48.34,48.32 l -0.762,423.78 c -0.058,26.62 21.348,48.11 47.906,48.21 0.063,0 0.125,0 0.188,0 0.023,0 0.047,0 0.07,0 h 0.332 c -26.558,-0.1 -47.965,-21.59 -47.902,-48.21 l 0.762,-423.19 c 0.058,-26.6 21.66,-48.28 48.336,-48.32 l 423.117,-0.45 c 0.011,0 0.023,0 0.035,0 26.484,0 48.004,21.47 48.129,47.92 v -0.29 c 0,-0.1 0,-0.2 0,-0.3 -0.129,-26.45 -21.645,-47.92 -48.125,-47.92"
         style="fill:#3b3b3c;fill-opacity:1;fill-rule:nonzero;stroke:none"
         id="path1218" />
      <path
         d="m 846.422,2967.48 c -0.012,0 -0.024,0 -0.035,0 l -423.117,0.45 c -26.676,0.04 -48.278,21.72 -48.336,48.32 l -0.762,423.19 c -0.063,26.62 21.344,48.11 47.902,48.21 0.063,0 0.125,0 0.188,0 0.027,0 0.047,0 0.074,0 h 0.336 c -26.563,-0.1 -47.965,-21.59 -47.906,-48.21 l 0.761,-422.59 c 0.059,-26.61 21.661,-48.29 48.34,-48.32 l 422.52,-0.45 c 0.011,0 0.023,0 0.035,0 26.48,0 48,21.47 48.129,47.91 v -0.29 c 0,-0.1 0,-0.2 0,-0.3 -0.125,-26.45 -21.645,-47.92 -48.129,-47.92"
         style="fill:#3a3a3b;fill-opacity:1;fill-rule:nonzero;stroke:none"
         id="path1220" />
      <path
         d="m 846.422,2968.08 c -0.012,0 -0.024,0 -0.035,0 l -422.52,0.45 c -26.679,0.03 -48.281,21.71 -48.34,48.32 l -0.761,422.59 c -0.059,26.62 21.343,48.11 47.906,48.21 0.062,0 0.125,0 0.187,0 0.024,0 0.047,0 0.071,0 h 0.336 c -26.559,-0.1 -47.961,-21.59 -47.907,-48.21 l 0.762,-422 c 0.059,-26.6 21.66,-48.28 48.344,-48.32 l 421.922,-0.45 c 0.011,0 0.023,0 0.039,0 26.48,0 47.996,21.47 48.125,47.92 v -0.29 c 0,-0.1 0,-0.2 0,-0.31 -0.129,-26.44 -21.649,-47.91 -48.129,-47.91"
         style="fill:#3a3a3b;fill-opacity:1;fill-rule:nonzero;stroke:none"
         id="path1222" />
      <path
         d="m 846.426,2968.67 c -0.016,0 -0.028,0 -0.039,0 l -421.922,0.45 c -26.684,0.04 -48.285,21.72 -48.344,48.32 l -0.762,422 c -0.054,26.62 21.348,48.11 47.907,48.21 0.062,0 0.125,0 0.187,0 0.024,0 0.047,0 0.07,0 h 0.336 c -26.562,-0.1 -47.964,-21.59 -47.906,-48.21 l 0.762,-421.41 c 0.058,-26.6 21.66,-48.28 48.34,-48.32 l 421.332,-0.45 c 0.011,0 0.023,0 0.035,0 26.484,0 48.004,21.47 48.129,47.92 v -0.29 c 0,-0.1 0,-0.2 0,-0.3 -0.129,-26.45 -21.645,-47.92 -48.125,-47.92"
         style="fill:#39393a;fill-opacity:1;fill-rule:nonzero;stroke:none"
         id="path1224" />
      <path
         d="m 846.422,2969.26 c -0.012,0 -0.024,0 -0.035,0 l -421.332,0.45 c -26.68,0.04 -48.282,21.72 -48.34,48.32 l -0.762,421.41 c -0.058,26.62 21.344,48.11 47.906,48.21 0.063,0 0.125,0 0.188,0 0.023,0 0.047,0 0.07,0 h 0.336 c -26.558,-0.1 -47.965,-21.59 -47.906,-48.21 l 0.762,-420.81 c 0.058,-26.6 21.66,-48.28 48.339,-48.32 l 420.739,-0.45 c 0.011,0 0.023,0 0.035,0 26.48,0 48,21.47 48.129,47.92 v -0.29 c 0,-0.1 0,-0.21 0,-0.31 -0.125,-26.45 -21.645,-47.92 -48.129,-47.92"
         style="fill:#39393a;fill-opacity:1;fill-rule:nonzero;stroke:none"
         id="path1226" />
      <path
         d="m 846.422,2969.86 c -0.012,0 -0.024,0 -0.035,0 l -420.739,0.45 c -26.679,0.04 -48.281,21.72 -48.339,48.32 l -0.762,420.81 c -0.059,26.62 21.348,48.11 47.906,48.21 0.063,0 0.125,0 0.188,0 0.023,0 0.047,0 0.07,0 h 0.336 c -26.563,-0.1 -47.965,-21.59 -47.906,-48.21 l 0.761,-420.22 c 0.059,-26.6 21.657,-48.28 48.336,-48.32 l 420.149,-0.45 c 0.011,0 0.023,0 0.035,0 26.484,0 48.004,21.47 48.129,47.92 v -0.29 c 0,-0.1 0,-0.2 0,-0.3 -0.129,-26.45 -21.649,-47.92 -48.129,-47.92"
         style="fill:#383838;fill-opacity:1;fill-rule:nonzero;stroke:none"
         id="path1228" />
      <path
         d="m 846.422,2970.45 c -0.012,0 -0.024,0 -0.035,0 l -420.149,0.45 c -26.679,0.04 -48.277,21.72 -48.336,48.32 l -0.761,420.22 c -0.059,26.62 21.343,48.11 47.906,48.21 0.058,0 0.125,0 0.183,0 0.028,0 0.047,0 0.075,0 h 0.336 c -26.559,-0.11 -47.965,-21.6 -47.907,-48.21 l 0.762,-419.63 c 0.059,-26.6 21.66,-48.28 48.34,-48.32 l 419.551,-0.45 c 0.011,0 0.023,0 0.035,0 26.48,0 48,21.47 48.129,47.92 v -0.29 c 0,-0.1 0,-0.2 0,-0.3 -0.125,-26.45 -21.645,-47.92 -48.129,-47.92"
         style="fill:#383838;fill-opacity:1;fill-rule:nonzero;stroke:none"
         id="path1230" />
      <path
         d="m 846.422,2971.04 c -0.012,0 -0.024,0 -0.035,0 l -419.551,0.45 c -26.68,0.04 -48.281,21.72 -48.34,48.32 l -0.762,419.63 c -0.058,26.61 21.348,48.1 47.907,48.21 0.062,0 0.125,0 0.187,0 0.024,0 0.047,0 0.07,0 h 0.336 c -26.554,-0.11 -47.964,-21.6 -47.906,-48.21 l 0.762,-419.03 c 0.058,-26.6 21.664,-48.28 48.344,-48.32 l 418.953,-0.45 c 0.011,0 0.023,0 0.035,0 26.48,0 48,21.47 48.129,47.92 v -0.29 c 0,-0.1 0,-0.21 0,-0.31 -0.129,-26.45 -21.649,-47.92 -48.129,-47.92"
         style="fill:#373737;fill-opacity:1;fill-rule:nonzero;stroke:none"
         id="path1232" />
      <path
         d="m 846.422,2971.64 c -0.012,0 -0.024,0 -0.035,0 l -418.953,0.45 c -26.68,0.04 -48.286,21.72 -48.344,48.32 l -0.762,419.03 c -0.058,26.61 21.352,48.1 47.906,48.21 0.067,0 0.125,0 0.188,0 0.027,0 0.047,0 0.07,0 h 0.336 c -26.562,-0.1 -47.965,-21.59 -47.906,-48.21 L 379.684,3021 c 0.058,-26.6 21.66,-48.28 48.339,-48.32 l 418.364,-0.45 c 0.011,0 0.023,0 0.039,0 26.48,0 48,21.47 48.125,47.92 v -0.29 c 0,-0.1 0,-0.2 0,-0.3 -0.129,-26.45 -21.649,-47.92 -48.129,-47.92"
         style="fill:#363536;fill-opacity:1;fill-rule:nonzero;stroke:none"
         id="path1234" />
      <path
         d="m 846.426,2972.23 c -0.016,0 -0.028,0 -0.039,0 l -418.364,0.45 c -26.679,0.04 -48.281,21.72 -48.339,48.32 l -0.762,418.44 c -0.059,26.62 21.344,48.11 47.906,48.21 0.059,0 0.125,0 0.188,0 0.023,0 0.043,0 0.07,0 h 0.336 c -26.559,-0.11 -47.965,-21.6 -47.906,-48.21 l 0.761,-417.84 c 0.059,-26.61 21.661,-48.28 48.34,-48.32 l 417.77,-0.45 c 0.011,0 0.023,0 0.035,0 26.48,0 48,21.47 48.129,47.91 v -0.29 c 0,-0.1 0,-0.2 0,-0.3 -0.125,-26.45 -21.645,-47.92 -48.125,-47.92"
         style="fill:#363536;fill-opacity:1;fill-rule:nonzero;stroke:none"
         id="path1236" />
      <path
         d="m 846.422,2972.83 c -0.012,0 -0.024,0 -0.035,0 l -417.77,0.45 c -26.679,0.04 -48.281,21.71 -48.34,48.32 l -0.761,417.84 c -0.059,26.61 21.347,48.1 47.906,48.21 0.062,0 0.125,0 0.187,0 0.024,0 0.047,0 0.071,0 h 0.336 c -26.555,-0.11 -47.961,-21.6 -47.903,-48.21 l 0.758,-417.25 c 0.063,-26.6 21.664,-48.28 48.344,-48.32 l 417.172,-0.45 c 0.011,0 0.023,0 0.035,0 26.48,0 48,21.47 48.129,47.92 v -0.29 c 0,-0.1 0,-0.2 0,-0.31 -0.129,-26.44 -21.649,-47.91 -48.129,-47.91"
         style="fill:#363535;fill-opacity:1;fill-rule:nonzero;stroke:none"
         id="path1238" />
      <path
         d="m 846.422,2973.42 c -0.012,0 -0.024,0 -0.035,0 l -417.172,0.45 c -26.68,0.04 -48.281,21.72 -48.344,48.32 l -0.758,417.25 c -0.058,26.61 21.348,48.1 47.903,48.21 0.066,0 0.125,0 0.191,0 0.023,0 0.047,0 0.07,0 h 0.332 c -26.562,-0.1 -47.964,-21.59 -47.906,-48.21 l 0.762,-416.66 c 0.058,-26.6 21.66,-48.28 48.34,-48.32 l 416.582,-0.45 c 0.011,0 0.023,0 0.039,0 26.48,0 47.996,21.47 48.125,47.92 v -0.28 c 0,-0.11 0,-0.21 0,-0.31 -0.129,-26.45 -21.649,-47.92 -48.129,-47.92"
         style="fill:#343434;fill-opacity:1;fill-rule:nonzero;stroke:none"
         id="path1240" />
      <path
         d="m 846.426,2974.01 c -0.016,0 -0.028,0 -0.039,0 l -416.582,0.45 c -26.68,0.04 -48.282,21.72 -48.34,48.32 l -0.762,416.66 c -0.058,26.62 21.344,48.11 47.906,48.21 0.063,0 0.125,0 0.188,0 0.023,0 0.047,0 0.07,0 h 0.336 c -26.558,-0.11 -47.961,-21.6 -47.902,-48.21 l 0.762,-416.06 c 0.054,-26.6 21.66,-48.28 48.335,-48.32 l 415.989,-0.45 c 0.011,0 0.023,0 0.035,0 26.48,0 48,21.47 48.129,47.92 v -0.29 c 0,-0.11 0,-0.21 0,-0.31 -0.129,-26.45 -21.645,-47.92 -48.125,-47.92"
         style="fill:#343434;fill-opacity:1;fill-rule:nonzero;stroke:none"
         id="path1242" />
      <path
         d="m 846.422,2974.61 c -0.012,0 -0.024,0 -0.035,0 l -415.989,0.45 c -26.675,0.04 -48.281,21.72 -48.335,48.32 l -0.762,416.06 c -0.059,26.61 21.344,48.1 47.902,48.21 0.063,0 0.125,0 0.188,0 0.027,0 0.047,0 0.074,0 h 0.336 c -26.559,-0.11 -47.965,-21.6 -47.906,-48.21 l 0.761,-415.47 c 0.059,-26.6 21.66,-48.28 48.34,-48.32 l 415.391,-0.45 c 0.011,0 0.023,0 0.035,0 26.48,0 48,21.47 48.129,47.92 v -0.29 c 0,-0.1 0,-0.2 0,-0.3 -0.129,-26.45 -21.649,-47.92 -48.129,-47.92"
         style="fill:#343334;fill-opacity:1;fill-rule:nonzero;stroke:none"
         id="path1244" />
      <path
         d="m 846.422,2975.2 c -0.012,0 -0.024,0 -0.035,0 l -415.391,0.45 c -26.68,0.04 -48.281,21.72 -48.34,48.32 l -0.761,415.47 c -0.059,26.61 21.347,48.1 47.906,48.21 0.062,0 0.125,0 0.187,0 0.024,0 0.047,0 0.071,0 h 0.332 c -26.563,-0.1 -47.965,-21.59 -47.907,-48.21 l 0.762,-414.87 c 0.059,-26.61 21.66,-48.29 48.34,-48.33 l 414.801,-0.44 c 0.011,0 0.023,0 0.039,0 26.48,0 47.996,21.47 48.125,47.91 v -0.28 c 0,-0.1 0,-0.21 0,-0.31 -0.129,-26.45 -21.649,-47.92 -48.129,-47.92"
         style="fill:#343333;fill-opacity:1;fill-rule:nonzero;stroke:none"
         id="path1246" />
      <path
         d="m 846.426,2975.8 c -0.016,0 -0.028,0 -0.039,0 l -414.801,0.44 c -26.68,0.04 -48.281,21.72 -48.34,48.33 l -0.762,414.87 c -0.058,26.62 21.344,48.11 47.907,48.21 0.062,0 0.125,0 0.187,0 0.024,0 0.047,0 0.07,0 h 0.336 c -26.554,-0.11 -47.961,-21.6 -47.902,-48.21 l 0.762,-414.28 c 0.058,-26.6 21.66,-48.28 48.34,-48.32 l 414.203,-0.45 c 0.011,0 0.023,0 0.035,0 26.48,0 48,21.47 48.129,47.92 v -0.29 c 0,-0.1 0,-0.2 0,-0.31 -0.129,-26.44 -21.645,-47.91 -48.125,-47.91"
         style="fill:#333232;fill-opacity:1;fill-rule:nonzero;stroke:none"
         id="path1248" />
      <path
         d="m 846.422,2976.39 c -0.012,0 -0.024,0 -0.035,0 l -414.203,0.45 c -26.68,0.04 -48.282,21.72 -48.34,48.32 l -0.762,414.28 c -0.059,26.61 21.348,48.1 47.902,48.21 0.067,0 0.125,0 0.192,0 0.023,0 0.047,0 0.07,0 h 0.336 c -26.559,-0.11 -47.965,-21.6 -47.906,-48.21 l 0.762,-413.68 c 0.058,-26.61 21.66,-48.28 48.339,-48.32 l 413.61,-0.45 c 0.011,0 0.023,0 0.035,0 26.48,0 48,21.47 48.129,47.91 v -0.29 c 0,-0.1 0,-0.2 0,-0.3 -0.129,-26.45 -21.649,-47.92 -48.129,-47.92"
         style="fill:#323131;fill-opacity:1;fill-rule:nonzero;stroke:none"
         id="path1250" />
      <path
         d="m 846.422,2976.99 c -0.012,0 -0.024,0 -0.035,0 l -413.61,0.45 c -26.679,0.04 -48.281,21.71 -48.339,48.32 l -0.762,413.68 c -0.059,26.61 21.347,48.1 47.906,48.21 0.063,0 0.125,0 0.188,0 0.023,0 0.046,0 0.07,0 h 0.332 c -26.559,-0.11 -47.961,-21.6 -47.902,-48.21 l 0.757,-413.09 c 0.063,-26.6 21.661,-48.28 48.344,-48.32 l 413.016,-0.45 c 0.011,0 0.023,0 0.039,0 26.48,0 47.996,21.47 48.125,47.92 v -0.29 c 0,-0.1 0,-0.2 0,-0.31 -0.129,-26.44 -21.649,-47.91 -48.129,-47.91"
         style="fill:#323131;fill-opacity:1;fill-rule:nonzero;stroke:none"
         id="path1252" />
      <path
         d="m 846.426,2977.58 c -0.016,0 -0.028,0 -0.039,0 l -413.016,0.45 c -26.683,0.04 -48.281,21.72 -48.344,48.32 l -0.757,413.09 c -0.059,26.61 21.343,48.1 47.902,48.21 0.062,0 0.125,0 0.187,0 0.028,0 0.047,0 0.071,0 h 0.336 c -26.555,-0.11 -47.961,-21.6 -47.903,-48.21 l 0.762,-412.5 c 0.059,-26.6 21.66,-48.28 48.34,-48.32 l 412.422,-0.45 c 0.011,0 0.023,0 0.035,0 26.48,0 48,21.47 48.129,47.92 v -0.29 c 0,-0.1 0,-0.2 0,-0.3 -0.129,-26.45 -21.645,-47.92 -48.125,-47.92"
         style="fill:#302f30;fill-opacity:1;fill-rule:nonzero;stroke:none"
         id="path1254" />
      <path
         d="m 846.422,2978.17 c -0.012,0 -0.024,0 -0.035,0 l -412.422,0.45 c -26.68,0.04 -48.281,21.72 -48.34,48.32 l -0.762,412.5 c -0.058,26.61 21.348,48.1 47.903,48.21 0.066,0 0.129,0 0.191,0 0.023,0 0.047,0 0.07,0 h 0.336 c -26.558,-0.11 -47.965,-21.6 -47.906,-48.21 l 0.766,-411.9 c 0.058,-26.6 21.66,-48.28 48.336,-48.32 l 411.828,-0.45 c 0.011,0 0.023,0 0.035,0 26.48,0 48,21.47 48.129,47.92 v -0.29 c 0,-0.11 0,-0.21 0,-0.31 -0.129,-26.45 -21.649,-47.92 -48.129,-47.92"
         style="fill:#302f2f;fill-opacity:1;fill-rule:nonzero;stroke:none"
         id="path1256" />
      <path
         d="m 846.422,2978.77 c -0.012,0 -0.024,0 -0.035,0 l -411.828,0.45 c -26.676,0.04 -48.278,21.72 -48.336,48.32 l -0.766,411.9 c -0.059,26.61 21.348,48.1 47.906,48.21 0.063,0 0.125,0 0.188,0 0.027,0 0.047,0 0.07,0 h 0.332 c -26.555,-0.11 -47.961,-21.6 -47.902,-48.21 l 0.762,-411.31 c 0.058,-26.6 21.66,-48.28 48.339,-48.32 l 411.235,-0.45 c 0.011,0 0.023,0 0.039,0 26.48,0 47.996,21.47 48.125,47.92 v -0.29 c 0,-0.1 0,-0.2 0,-0.3 -0.129,-26.45 -21.649,-47.92 -48.129,-47.92"
         style="fill:#2f2e2e;fill-opacity:1;fill-rule:nonzero;stroke:none"
         id="path1258" />
      <path
         d="m 846.426,2979.36 c -0.016,0 -0.028,0 -0.039,0 l -411.235,0.45 c -26.679,0.04 -48.281,21.72 -48.339,48.32 l -0.762,411.31 c -0.059,26.61 21.347,48.1 47.902,48.21 0.067,0 0.125,0 0.188,0 0.027,0 0.047,0 0.074,0 h 0.336 c -26.559,-0.11 -47.965,-21.6 -47.906,-48.21 l 0.761,-410.71 c 0.059,-26.61 21.66,-48.29 48.34,-48.33 l 410.641,-0.44 c 0.011,0 0.023,0 0.039,0 26.48,0 47.996,21.46 48.125,47.91 v -0.29 c 0,-0.1 0,-0.2 0,-0.3 -0.129,-26.45 -21.645,-47.92 -48.125,-47.92"
         style="fill:#2f2e2e;fill-opacity:1;fill-rule:nonzero;stroke:none"
         id="path1260" />
      <path
         d="m 846.426,2979.96 c -0.016,0 -0.028,0 -0.039,0 l -410.641,0.44 c -26.68,0.04 -48.281,21.72 -48.34,48.33 l -0.761,410.71 c -0.059,26.61 21.347,48.1 47.906,48.21 0.062,0 0.125,0 0.187,0 0.024,0 0.047,0 0.071,0 h 0.336 c -26.559,-0.11 -47.961,-21.6 -47.903,-48.21 l 0.762,-410.12 c 0.059,-26.6 21.66,-48.28 48.34,-48.32 l 410.043,-0.45 c 0.011,0 0.023,0 0.035,0 26.48,0 48,21.47 48.129,47.92 v -0.29 c 0,-0.1 0,-0.21 0,-0.31 -0.129,-26.45 -21.645,-47.91 -48.125,-47.91"
         style="fill:#2e2d2d;fill-opacity:1;fill-rule:nonzero;stroke:none"
         id="path1262" />
      <path
         d="m 846.422,2980.55 c -0.012,0 -0.024,0 -0.035,0 L 436.344,2981 c -26.68,0.04 -48.281,21.72 -48.34,48.32 l -0.762,410.12 c -0.058,26.61 21.344,48.1 47.903,48.21 0.062,0 0.125,0 0.191,0 0.023,0 0.047,0 0.07,0 h 0.328 c -26.554,-0.11 -47.961,-21.6 -47.902,-48.21 l 0.762,-409.53 c 0.058,-26.6 21.66,-48.28 48.34,-48.32 l 409.453,-0.45 c 0.011,0 0.023,0 0.039,0 26.48,0 47.996,21.47 48.125,47.92 v -0.29 c 0,-0.1 0,-0.2 0,-0.3 -0.129,-26.45 -21.649,-47.92 -48.129,-47.92"
         style="fill:#2d2c2c;fill-opacity:1;fill-rule:nonzero;stroke:none"
         id="path1264" />
      <path
         d="m 846.426,2981.14 c -0.016,0 -0.028,0 -0.039,0 l -409.453,0.45 c -26.68,0.04 -48.282,21.72 -48.34,48.32 l -0.762,409.53 c -0.059,26.61 21.348,48.1 47.902,48.21 0.067,0 0.125,0 0.192,0 0.023,0 0.047,0 0.07,0 h 0.336 c -26.559,-0.11 -47.961,-21.6 -47.902,-48.21 l 0.758,-408.93 c 0.058,-26.6 21.66,-48.28 48.339,-48.32 l 408.86,-0.45 c 0.011,0 0.023,0 0.039,0 26.48,0 47.996,21.46 48.125,47.91 v -0.28 c 0,-0.11 0,-0.21 0,-0.31 -0.129,-26.45 -21.645,-47.92 -48.125,-47.92"
         style="fill:#2c2b2b;fill-opacity:1;fill-rule:nonzero;stroke:none"
         id="path1266" />
      <path
         d="m 846.426,2981.74 c -0.016,0 -0.028,0 -0.039,0 l -408.86,0.45 c -26.679,0.04 -48.281,21.72 -48.339,48.32 l -0.758,408.93 c -0.059,26.61 21.343,48.1 47.902,48.21 0.063,0 0.125,0 0.188,0 0.027,0 0.046,0 0.074,0 h 0.332 c -26.559,-0.11 -47.961,-21.6 -47.903,-48.21 l 0.762,-408.34 c 0.059,-26.6 21.66,-48.28 48.34,-48.32 l 408.262,-0.45 c 0.011,0 0.023,0 0.035,0 26.48,0 48,21.47 48.129,47.92 v -0.29 c 0,-0.1 0,-0.21 0,-0.31 -0.129,-26.45 -21.645,-47.91 -48.125,-47.91"
         style="fill:#2c2b2b;fill-opacity:1;fill-rule:nonzero;stroke:none"
         id="path1268" />
      <path
         d="m 846.422,2982.33 c -0.012,0 -0.024,0 -0.035,0 l -408.262,0.45 c -26.68,0.04 -48.281,21.72 -48.34,48.32 l -0.762,408.34 c -0.058,26.61 21.344,48.1 47.903,48.21 0.062,0 0.129,0 0.191,0 0.024,0 0.047,0 0.071,0 h 0.332 c -26.559,-0.11 -47.965,-21.6 -47.907,-48.21 l 0.762,-407.75 c 0.059,-26.6 21.66,-48.28 48.34,-48.32 l 407.672,-0.44 c 0.011,0 0.023,0 0.039,0 26.48,0 47.996,21.46 48.125,47.91 v -0.28 c 0,-0.11 0,-0.21 0,-0.31 -0.129,-26.45 -21.649,-47.92 -48.129,-47.92"
         style="fill:#2c2a2a;fill-opacity:1;fill-rule:nonzero;stroke:none"
         id="path1270" />
      <path
         d="m 846.426,2982.93 c -0.016,0 -0.028,0 -0.039,0 l -407.672,0.44 c -26.68,0.04 -48.281,21.72 -48.34,48.32 l -0.762,407.75 c -0.058,26.61 21.348,48.1 47.907,48.21 0.062,0 0.125,0 0.187,0 0.023,0 0.047,0 0.07,0 h 0.336 c -26.558,-0.11 -47.961,-21.6 -47.902,-48.21 l 0.762,-407.15 c 0.058,-26.6 21.66,-48.28 48.34,-48.32 l 407.074,-0.45 c 0.011,0 0.023,0 0.039,0 26.48,0 47.996,21.47 48.125,47.91 v -0.28 c 0,-0.11 0,-0.21 0,-0.31 -0.129,-26.45 -21.645,-47.91 -48.125,-47.91"
         style="fill:#2b2929;fill-opacity:1;fill-rule:nonzero;stroke:none"
         id="path1272" />
      <path
         d="m 846.426,2983.52 c -0.016,0 -0.028,0 -0.039,0 l -407.074,0.45 c -26.68,0.04 -48.282,21.72 -48.34,48.32 l -0.762,407.15 c -0.059,26.61 21.344,48.1 47.902,48.21 0.063,0 0.125,0 0.192,0 0.023,0 0.043,0 0.07,0 h 0.336 c -26.559,-0.11 -47.965,-21.6 -47.906,-48.21 l 0.761,-406.55 c 0.059,-26.61 21.661,-48.29 48.34,-48.32 l 406.481,-0.45 c 0.011,0 0.023,0 0.035,0 26.48,0 48,21.46 48.129,47.91 v -0.29 c 0,-0.1 0,-0.2 0,-0.31 -0.129,-26.44 -21.645,-47.91 -48.125,-47.91"
         style="fill:#2a2928;fill-opacity:1;fill-rule:nonzero;stroke:none"
         id="path1274" />
      <path
         d="m 846.422,2984.12 c -0.012,0 -0.024,0 -0.035,0 l -406.481,0.45 c -26.679,0.03 -48.281,21.71 -48.34,48.32 l -0.761,406.55 c -0.059,26.61 21.347,48.1 47.906,48.21 0.062,0 0.125,0 0.187,0 0.024,0 0.047,0 0.071,0 h 0.332 c -26.559,-0.11 -47.961,-21.6 -47.906,-48.21 l 0.761,-405.96 c 0.059,-26.61 21.664,-48.28 48.34,-48.32 l 405.891,-0.45 c 0.011,0 0.023,0 0.035,0 26.48,0 48,21.47 48.129,47.91 v -0.28 c 0,-0.1 0,-0.21 0,-0.31 -0.129,-26.45 -21.649,-47.91 -48.129,-47.91"
         style="fill:#292827;fill-opacity:1;fill-rule:nonzero;stroke:none"
         id="path1276" />
      <path
         d="m 846.422,2984.71 c -0.012,0 -0.024,0 -0.035,0 l -405.891,0.45 c -26.676,0.04 -48.281,21.71 -48.34,48.32 l -0.761,405.96 c -0.055,26.61 21.347,48.1 47.906,48.21 0.062,0 0.125,0 0.187,0 0.028,0 0.047,0 0.075,0 h 0.332 c -26.559,-0.11 -47.961,-21.6 -47.903,-48.21 l 0.762,-405.37 c 0.059,-26.6 21.66,-48.28 48.34,-48.32 l 405.293,-0.45 c 0.011,0 0.023,0 0.039,0 26.48,0 47.996,21.47 48.125,47.92 v -0.29 c 0,-0.1 0,-0.21 0,-0.31 -0.129,-26.44 -21.649,-47.91 -48.129,-47.91"
         style="fill:#292827;fill-opacity:1;fill-rule:nonzero;stroke:none"
         id="path1278" />
      <path
         d="m 846.426,2985.3 c -0.016,0 -0.028,0 -0.039,0 l -405.293,0.45 c -26.68,0.04 -48.281,21.72 -48.34,48.32 l -0.762,405.37 c -0.058,26.61 21.344,48.1 47.903,48.21 0.062,0 0.125,0 0.191,0 0.023,0 0.047,0 0.07,0 h 0.336 c -26.558,-0.11 -47.961,-21.6 -47.902,-48.21 l 0.762,-404.77 c 0.054,-26.6 21.66,-48.28 48.336,-48.32 l 404.699,-0.45 c 0.011,0 0.023,0 0.035,0 26.48,0 48,21.47 48.129,47.91 v -0.28 c 0,-0.11 0,-0.21 0,-0.31 -0.129,-26.45 -21.645,-47.92 -48.125,-47.92"
         style="fill:#282726;fill-opacity:1;fill-rule:nonzero;stroke:none"
         id="path1280" />
      <path
         d="m 846.422,2985.9 c -0.012,0 -0.024,0 -0.035,0 l -404.699,0.45 c -26.676,0.04 -48.282,21.72 -48.336,48.32 l -0.762,404.77 c -0.059,26.61 21.344,48.1 47.902,48.21 0.063,0 0.125,0 0.188,0 0.023,0 0.047,0 0.074,0 h 0.328 c -26.559,-0.11 -47.961,-21.6 -47.902,-48.21 l 0.761,-404.18 c 0.059,-26.6 21.661,-48.28 48.34,-48.32 l 404.106,-0.45 c 0.011,0 0.023,0 0.035,0 26.48,0 48,21.47 48.129,47.91 v -0.28 c 0,-0.1 0,-0.2 0,-0.31 -0.129,-26.44 -21.649,-47.91 -48.129,-47.91"
         style="fill:#272626;fill-opacity:1;fill-rule:nonzero;stroke:none"
         id="path1282" />
      <path
         d="m 846.422,2986.49 c -0.012,0 -0.024,0 -0.035,0 l -404.106,0.45 c -26.679,0.04 -48.281,21.72 -48.34,48.32 l -0.761,404.18 c -0.059,26.61 21.343,48.1 47.902,48.21 0.063,0 0.129,0 0.191,0 0.024,0 0.047,0 0.071,0 h 0.332 c -26.559,-0.11 -47.961,-21.6 -47.903,-48.21 l 0.762,-403.59 c 0.059,-26.6 21.66,-48.28 48.34,-48.32 l 403.512,-0.44 c 0.011,0 0.023,0 0.039,0 26.476,0 47.996,21.46 48.125,47.91 v -0.29 c 0,-0.1 0,-0.2 0,-0.31 -0.129,-26.44 -21.649,-47.91 -48.129,-47.91"
         style="fill:#272525;fill-opacity:1;fill-rule:nonzero;stroke:none"
         id="path1284" />
      <path
         d="m 846.426,2987.09 c -0.016,0 -0.028,0 -0.039,0 l -403.512,0.44 c -26.68,0.04 -48.281,21.72 -48.34,48.32 l -0.762,403.59 c -0.058,26.61 21.344,48.1 47.903,48.21 0.062,0 0.129,0 0.191,0 0.024,0 0.047,0 0.071,0 h 0.335 c -26.558,-0.11 -47.96,-21.6 -47.902,-48.21 l 0.762,-402.99 c 0.058,-26.6 21.66,-48.28 48.34,-48.32 l 402.914,-0.45 c 0.011,0 0.023,0 0.039,0 26.476,0 47.996,21.47 48.125,47.91 v -0.28 c 0,-0.11 0,-0.21 0,-0.31 -0.129,-26.45 -21.649,-47.91 -48.125,-47.91"
         style="fill:#262424;fill-opacity:1;fill-rule:nonzero;stroke:none"
         id="path1286" />
      <path
         d="m 846.426,2987.68 c -0.016,0 -0.028,0 -0.039,0 l -402.914,0.45 c -26.68,0.04 -48.282,21.72 -48.34,48.32 l -0.762,402.99 c -0.058,26.61 21.344,48.1 47.902,48.21 0.063,0 0.125,0 0.192,0 0.023,0 0.047,0 0.07,0 h 0.328 c -26.554,-0.11 -47.961,-21.6 -47.902,-48.21 l 0.762,-402.4 c 0.058,-26.6 21.66,-48.28 48.34,-48.32 l 402.324,-0.45 c 0.011,0 0.023,0 0.035,0 26.48,0 48,21.47 48.129,47.92 v -0.29 c 0,-0.1 0,-0.2 0,-0.31 -0.129,-26.44 -21.649,-47.91 -48.125,-47.91"
         style="fill:#242323;fill-opacity:1;fill-rule:nonzero;stroke:none"
         id="path1288" />
      <path
         d="m 846.422,2988.27 c -0.012,0 -0.024,0 -0.035,0 l -402.324,0.45 c -26.68,0.04 -48.282,21.72 -48.34,48.32 l -0.762,402.4 c -0.059,26.61 21.348,48.1 47.902,48.21 0.067,0 0.129,0 0.192,0 0.023,0 0.047,0 0.07,0 h 0.336 c -26.559,-0.11 -47.965,-21.6 -47.902,-48.21 l 0.757,-401.8 c 0.063,-26.6 21.664,-48.28 48.344,-48.32 l 401.727,-0.45 c 0.011,0 0.023,0 0.039,0 26.476,0 47.996,21.46 48.125,47.91 v -0.29 c 0,-0.1 0,-0.2 0,-0.3 -0.129,-26.45 -21.649,-47.92 -48.129,-47.92"
         style="fill:#242322;fill-opacity:1;fill-rule:nonzero;stroke:none"
         id="path1290" />
      <path
         d="m 846.426,2988.87 c -0.016,0 -0.028,0 -0.039,0 l -401.727,0.45 c -26.68,0.04 -48.281,21.72 -48.344,48.32 l -0.757,401.8 c -0.063,26.61 21.343,48.1 47.902,48.21 0.062,0 0.125,0 0.187,0 0.028,0 0.047,0 0.071,0 h 0.336 c -26.559,-0.11 -47.961,-21.6 -47.903,-48.21 l 0.762,-401.21 c 0.059,-26.6 21.66,-48.28 48.34,-48.32 l 401.133,-0.45 c 0.011,0 0.023,0 0.039,0 26.476,0 47.996,21.47 48.125,47.92 v -0.29 c 0,-0.1 0,-0.21 0,-0.31 -0.129,-26.45 -21.649,-47.91 -48.125,-47.91"
         style="fill:#232121;fill-opacity:1;fill-rule:nonzero;stroke:none"
         id="path1292" />
      <path
         d="m 846.426,2989.46 c -0.016,0 -0.028,0 -0.039,0 l -401.133,0.45 c -26.68,0.04 -48.281,21.72 -48.34,48.32 l -0.762,401.21 c -0.058,26.61 21.344,48.1 47.903,48.21 0.062,0 0.129,0 0.191,0 0.024,0 0.047,0 0.07,0 h 0.332 c -26.558,-0.11 -47.964,-21.6 -47.906,-48.21 l 0.762,-400.62 c 0.059,-26.6 21.66,-48.28 48.34,-48.32 l 400.543,-0.45 c 0.011,0 0.023,0 0.035,0 26.48,0 48,21.47 48.129,47.92 v -0.28 c 0,-0.11 0,-0.21 0,-0.31 -0.129,-26.45 -21.649,-47.92 -48.125,-47.92"
         style="fill:#232121;fill-opacity:1;fill-rule:nonzero;stroke:none"
         id="path1294" />
      <path
         d="m 846.422,2990.05 c -0.012,0 -0.024,0 -0.035,0 l -400.543,0.45 c -26.68,0.04 -48.281,21.72 -48.34,48.32 l -0.762,400.62 c -0.058,26.61 21.348,48.1 47.906,48.21 0.063,0 0.125,0 0.188,0 0.023,0 0.047,0 0.07,0 h 0.336 c -26.558,-0.11 -47.961,-21.6 -47.902,-48.21 l 0.762,-400.02 c 0.058,-26.6 21.66,-48.28 48.339,-48.32 l 399.946,-0.45 c 0.011,0 0.023,0 0.039,0 26.476,0 47.996,21.47 48.125,47.91 v -0.28 c 0,-0.11 0,-0.21 0,-0.31 -0.129,-26.45 -21.649,-47.92 -48.129,-47.92"
         style="fill:#222121;fill-opacity:1;fill-rule:nonzero;stroke:none"
         id="path1296" />
      <path
         d="m 846.426,2990.65 c -0.016,0 -0.028,0 -0.039,0 l -399.946,0.45 c -26.679,0.04 -48.281,21.72 -48.339,48.32 l -0.762,400.02 c -0.059,26.61 21.344,48.1 47.902,48.21 0.063,0 0.125,0 0.188,0 0.027,0 0.047,0 0.074,0 h 0.332 c -26.559,-0.11 -47.961,-21.6 -47.902,-48.21 l 0.761,-399.42 c 0.059,-26.61 21.66,-48.29 48.34,-48.33 l 399.352,-0.44 c 0.011,0 0.023,0 0.039,0 26.476,0 47.996,21.46 48.125,47.91 v -0.29 c 0,-0.1 0,-0.2 0,-0.31 -0.129,-26.44 -21.649,-47.91 -48.125,-47.91"
         style="fill:#21201f;fill-opacity:1;fill-rule:nonzero;stroke:none"
         id="path1298" />
      <path
         d="m 846.426,2991.25 c -0.016,0 -0.028,0 -0.039,0 l -399.352,0.44 c -26.68,0.04 -48.281,21.72 -48.34,48.33 l -0.761,399.42 c -0.059,26.61 21.343,48.1 47.902,48.21 0.062,0 0.129,0 0.191,0 0.024,0 0.047,0 0.071,0 h 0.332 c -26.559,-0.11 -47.961,-21.6 -47.907,-48.21 l 0.762,-398.83 c 0.059,-26.61 21.66,-48.29 48.344,-48.32 l 398.758,-0.45 c 0.011,0 0.023,0 0.035,0 26.48,0 48,21.46 48.129,47.91 v -0.28 c 0,-0.11 0,-0.21 0,-0.31 -0.129,-26.45 -21.649,-47.91 -48.125,-47.91"
         style="fill:#201f1f;fill-opacity:1;fill-rule:nonzero;stroke:none"
         id="path1300" />
      <path
         d="m 846.422,2991.84 c -0.012,0 -0.024,0 -0.035,0 l -398.758,0.45 c -26.684,0.03 -48.285,21.71 -48.344,48.32 l -0.762,398.83 c -0.054,26.61 21.348,48.1 47.907,48.21 0.062,0 0.125,0 0.187,0 0.028,0 0.047,0 0.074,0 h 0.332 c -26.558,-0.11 -47.96,-21.6 -47.902,-48.21 l 0.762,-398.24 c 0.058,-26.6 21.66,-48.28 48.34,-48.32 l 398.164,-0.45 c 0.011,0 0.023,0 0.035,0 26.48,0 48,21.47 48.129,47.91 v -0.28 c 0,-0.1 0,-0.21 0,-0.31 -0.129,-26.45 -21.649,-47.91 -48.129,-47.91"
         style="fill:#201e1d;fill-opacity:1;fill-rule:nonzero;stroke:none"
         id="path1302" />
      <path
         d="m 846.422,2992.43 c -0.012,0 -0.024,0 -0.035,0 l -398.164,0.45 c -26.68,0.04 -48.282,21.72 -48.34,48.32 l -0.762,398.24 c -0.058,26.61 21.344,48.1 47.902,48.21 0.063,0 0.129,0 0.192,0 0.023,0 0.047,0 0.07,0 h 0.332 c -26.554,-0.11 -47.957,-21.6 -47.898,-48.21 l 0.758,-397.64 c 0.058,-26.6 21.66,-48.28 48.343,-48.32 l 397.567,-0.45 c 0.011,0 0.023,0 0.039,0 26.476,0 47.996,21.46 48.125,47.91 v -0.29 c 0,-0.1 0,-0.2 0,-0.31 -0.129,-26.44 -21.649,-47.91 -48.129,-47.91"
         style="fill:#1f1e1d;fill-opacity:1;fill-rule:nonzero;stroke:none"
         id="path1304" />
      <path
         d="m 846.426,2993.03 c -0.016,0 -0.028,0 -0.039,0 l -397.567,0.45 c -26.683,0.04 -48.285,21.72 -48.343,48.32 l -0.758,397.64 c -0.059,26.61 21.344,48.1 47.898,48.21 0.067,0 0.129,0 0.192,0 0.027,0 0.046,0 0.07,0 h 0.332 c -26.559,-0.11 -47.961,-21.6 -47.902,-48.21 l 0.761,-397.05 c 0.059,-26.6 21.66,-48.28 48.34,-48.32 l 396.977,-0.45 c 0.011,0 0.023,0 0.035,0 26.48,0 48,21.47 48.129,47.91 v -0.28 c 0,-0.1 0,-0.21 0,-0.31 -0.129,-26.45 -21.649,-47.91 -48.125,-47.91"
         style="fill:#1e1d1d;fill-opacity:1;fill-rule:nonzero;stroke:none"
         id="path1306" />
      <path
         d="m 846.422,2993.62 c -0.012,0 -0.024,0 -0.035,0 l -396.977,0.45 c -26.68,0.04 -48.281,21.72 -48.34,48.32 l -0.761,397.05 c -0.059,26.61 21.343,48.1 47.902,48.21 0.062,0 0.125,0 0.191,0 0.024,0 0.043,0 0.071,0 h 0.332 c -26.559,-0.11 -47.961,-21.6 -47.903,-48.21 l 0.762,-396.46 c 0.059,-26.6 21.66,-48.28 48.34,-48.32 l 396.383,-0.45 c 0.011,0 0.023,0 0.035,0 26.48,0 48,21.47 48.129,47.92 v -0.29 c 0,-0.1 0,-0.2 0,-0.31 -0.129,-26.44 -21.649,-47.91 -48.129,-47.91"
         style="fill:#1e1c1b;fill-opacity:1;fill-rule:nonzero;stroke:none"
         id="path1308" />
      <path
         d="m 846.422,2994.21 c -0.012,0 -0.024,0 -0.035,0 l -396.383,0.45 c -26.68,0.04 -48.281,21.72 -48.34,48.32 l -0.762,396.46 c -0.058,26.61 21.344,48.1 47.903,48.21 0.062,0 0.129,0 0.191,0 0.024,0 0.047,0 0.07,0 h 0.332 c -26.554,-0.11 -47.957,-21.6 -47.898,-48.21 l 0.762,-395.86 c 0.058,-26.6 21.66,-48.28 48.34,-48.32 l 395.785,-0.45 c 0.011,0 0.023,0 0.039,0 26.476,0 47.996,21.46 48.125,47.91 v -0.28 c 0,-0.11 0,-0.21 0,-0.31 -0.129,-26.45 -21.649,-47.92 -48.129,-47.92"
         style="fill:#1e1b1b;fill-opacity:1;fill-rule:nonzero;stroke:none"
         id="path1310" />
      <path
         d="m 846.426,2994.81 c -0.016,0 -0.028,0 -0.039,0 l -395.785,0.45 c -26.68,0.04 -48.282,21.72 -48.34,48.32 l -0.762,395.86 c -0.059,26.61 21.344,48.1 47.898,48.21 0.067,0 0.129,0 0.196,0 0.023,0 0.043,0 0.07,0 h 0.328 c -26.558,-0.11 -47.961,-21.6 -47.902,-48.21 l 0.762,-395.27 c 0.058,-26.6 21.66,-48.28 48.339,-48.32 l 395.196,-0.45 c 0.011,0 0.023,0 0.035,0 26.48,0 48,21.47 48.129,47.91 v -0.28 c 0,-0.1 0,-0.21 0,-0.31 -0.129,-26.45 -21.649,-47.91 -48.125,-47.91"
         style="fill:#1c1b1a;fill-opacity:1;fill-rule:nonzero;stroke:none"
         id="path1312" />
      <path
         d="m 846.422,2995.4 c -0.012,0 -0.024,0 -0.035,0 l -395.196,0.45 c -26.679,0.04 -48.281,21.72 -48.339,48.32 l -0.762,395.27 c -0.059,26.61 21.344,48.1 47.902,48.21 0.063,0 0.129,0 0.192,0 0.023,0 0.046,0 0.07,0 h 0.332 c -26.555,-0.11 -47.957,-21.6 -47.902,-48.21 l 0.761,-394.67 c 0.059,-26.61 21.664,-48.29 48.34,-48.32 L 846.387,2996 c 0.011,0 0.023,0 0.035,0 26.48,0 48,21.46 48.129,47.91 v -0.29 c 0,-0.1 0,-0.2 0,-0.31 -0.129,-26.44 -21.649,-47.91 -48.129,-47.91"
         style="fill:#1c1a1a;fill-opacity:1;fill-rule:nonzero;stroke:none"
         id="path1314" />
      <path
         d="m 846.422,2996 c -0.012,0 -0.024,0 -0.035,0 l -394.602,0.45 c -26.676,0.03 -48.281,21.71 -48.34,48.32 l -0.761,394.67 c -0.055,26.61 21.347,48.1 47.902,48.21 0.066,0 0.129,0 0.191,0 0.028,0 0.047,0 0.075,0 h 0.332 c -26.559,-0.11 -47.961,-21.6 -47.903,-48.21 l 0.762,-394.08 c 0.059,-26.6 21.66,-48.28 48.34,-48.32 l 394.004,-0.45 c 0.011,0 0.023,0 0.039,0 26.476,0 47.996,21.47 48.125,47.91 v -0.28 c 0,-0.11 0,-0.21 0,-0.31 -0.129,-26.45 -21.649,-47.91 -48.129,-47.91"
         style="fill:#1b1919;fill-opacity:1;fill-rule:nonzero;stroke:none"
         id="path1316" />
      <path
         d="m 846.426,2996.59 c -0.016,0 -0.028,0 -0.039,0 l -394.004,0.45 c -26.68,0.04 -48.281,21.72 -48.34,48.32 l -0.762,394.08 c -0.058,26.61 21.344,48.1 47.903,48.21 0.062,0 0.125,0 0.191,0 0.023,0 0.047,0 0.07,0 h 0.328 c -26.558,-0.11 -47.96,-21.6 -47.902,-48.21 l 0.762,-393.49 c 0.058,-26.6 21.66,-48.28 48.34,-48.32 l 393.414,-0.45 c 0.011,0 0.023,0 0.035,0 26.48,0 48,21.47 48.129,47.92 v -0.29 c 0,-0.1 0,-0.2 0,-0.31 -0.129,-26.44 -21.649,-47.91 -48.125,-47.91"
         style="fill:#1b1918;fill-opacity:1;fill-rule:nonzero;stroke:none"
         id="path1318" />
      <path
         d="m 846.422,2997.18 c -0.012,0 -0.024,0 -0.035,0 l -393.414,0.45 c -26.68,0.04 -48.282,21.72 -48.34,48.32 l -0.762,393.49 c -0.058,26.61 21.344,48.1 47.902,48.21 0.067,0 0.129,0 0.192,0 0.023,0 0.047,0 0.07,0 h 0.332 c -26.554,-0.11 -47.957,-21.6 -47.898,-48.21 l 0.761,-392.89 c 0.059,-26.6 21.661,-48.28 48.34,-48.32 l 392.817,-0.45 c 0.011,0 0.023,0 0.035,0 26.48,0 48,21.46 48.129,47.91 v -0.28 c 0,-0.11 0,-0.21 0,-0.31 -0.129,-26.45 -21.649,-47.92 -48.129,-47.92"
         style="fill:#1a1818;fill-opacity:1;fill-rule:nonzero;stroke:none"
         id="path1320" />
      <path
         d="m 846.422,2997.78 c -0.012,0 -0.024,0 -0.035,0 l -392.817,0.45 c -26.679,0.04 -48.281,21.72 -48.34,48.32 l -0.761,392.89 c -0.059,26.61 21.344,48.1 47.898,48.21 0.067,0 0.129,0 0.196,0 0.023,0 0.046,0 0.07,0 h 0.332 c -26.559,-0.11 -47.961,-21.6 -47.902,-48.21 l 0.761,-392.3 c 0.059,-26.6 21.66,-48.28 48.34,-48.32 l 392.223,-0.45 c 0.011,0 0.023,0 0.035,0 26.48,0 48,21.47 48.129,47.91 V 3046 c 0,-0.1 0,-0.21 0,-0.31 -0.129,-26.45 -21.649,-47.91 -48.129,-47.91"
         style="fill:#1a1817;fill-opacity:1;fill-rule:nonzero;stroke:none"
         id="path1322" />
      <path
         d="m 846.422,2998.37 c -0.012,0 -0.024,0 -0.035,0 l -392.223,0.45 c -26.68,0.04 -48.281,21.72 -48.34,48.32 l -0.761,392.3 c -0.059,26.61 21.343,48.1 47.902,48.21 0.062,0 0.129,0 0.191,0 0.024,0 0.047,0 0.071,0 h 0.328 c -26.559,-0.11 -47.961,-21.6 -47.899,-48.21 l 0.762,-391.71 c 0.059,-26.6 21.656,-48.28 48.34,-48.32 l 391.629,-0.45 c 0.011,0 0.023,0 0.035,0 26.48,0 48,21.47 48.129,47.92 v -0.28 c 0,-0.11 0,-0.21 0,-0.32 -0.129,-26.44 -21.649,-47.91 -48.129,-47.91"
         style="fill:#191717;fill-opacity:1;fill-rule:nonzero;stroke:none"
         id="path1324" />
      <path
         d="m 846.422,2998.96 c -0.012,0 -0.024,0 -0.035,0 l -391.629,0.45 c -26.684,0.04 -48.281,21.72 -48.34,48.32 l -0.762,391.71 c -0.062,26.61 21.34,48.1 47.899,48.21 0.062,0 0.129,0 0.191,0 0.027,0 0.047,0 0.07,0 h 0.336 c -26.558,-0.11 -47.961,-21.6 -47.902,-48.21 l 0.762,-391.11 c 0.058,-26.6 21.66,-48.28 48.34,-48.32 l 391.035,-0.45 c 0.011,0 0.023,0 0.035,0 26.48,0 48,21.47 48.129,47.91 v -0.28 c 0,-0.11 0,-0.21 0,-0.31 -0.129,-26.45 -21.649,-47.92 -48.129,-47.92"
         style="fill:#191716;fill-opacity:1;fill-rule:nonzero;stroke:none"
         id="path1326" />
      <path
         d="m 846.422,2999.56 c -0.012,0 -0.024,0 -0.035,0 l -391.035,0.45 c -26.68,0.04 -48.282,21.72 -48.34,48.32 l -0.762,391.11 c -0.059,26.61 21.344,48.1 47.902,48.21 0.063,0 0.129,0 0.192,0 0.023,0 0.047,0 0.07,0 l 391.035,-0.43 c 26.582,-0.04 48.281,-21.62 48.34,-48.32 v 0 l 0.762,-391.12 c 0,-0.1 0,-0.2 0,-0.31 -0.129,-26.44 -21.649,-47.91 -48.129,-47.91"
         style="fill:#131210;fill-opacity:1;fill-rule:nonzero;stroke:none"
         id="path1328" />
      <path
         d="m 845.449,3487.22 c 26.582,-0.04 48.281,-21.62 48.34,-48.32 l 0.762,-391.12 c 0.039,-26.6 -21.563,-48.24 -48.164,-48.22 l -391.035,0.45 c -26.68,0.04 -48.282,21.72 -48.34,48.32 l -0.762,391.11 c -0.059,26.7 21.484,48.25 48.164,48.21 l 391.035,-0.43"
         style="fill:#4f4c4c;fill-opacity:1;fill-rule:nonzero;stroke:none"
         id="path1330" />
      <g
         id="g1332">
        <g
           id="g1334"
           clip-path="url(#clipPath1338)">
          <path
             d="m 881.25,3014 -0.723,0.73 0.098,-0.65 c -0.812,0.8 -3.73,-0.96 -9.094,-3.42 -5.34,-2.34 -13.523,-5.37 -23.941,-4.68 -23.281,1.86 -57.707,3.64 -99.856,5.11 -42.226,1.48 -92.507,2.69 -148.339,3.56 l -87.586,1.03 -46.34,0.29 -11.25,0.08 c -2.676,0.09 -5.313,0.54 -7.871,1.29 -5.118,1.46 -9.903,4.3 -13.782,8.11 -3.875,3.82 -6.746,8.58 -8.32,13.68 -0.769,2.54 -1.25,5.18 -1.394,7.86 l -0.098,11.04 -0.332,46.35 -1.094,87.61 c -0.918,55.84 -2.168,106.13 -3.691,148.36 -1.492,42.16 -3.313,76.56 -5.196,99.87 -0.742,10.42 2.207,18.62 4.524,23.97 2.41,5.38 4.168,8.29 3.348,9.1 -0.704,0.73 -4.043,-0.64 -8.653,-5.56 -4.441,-4.86 -10.273,-13.84 -11.543,-27.23 -1.914,-23.92 -3.496,-57.89 -4.863,-100.19 -1.348,-42.24 -2.41,-92.53 -3.106,-148.38 l -0.753,-87.61 -0.145,-46.35 -0.012,-5.89 0.071,-6.67 c 0.254,-5.22 1.171,-10.45 2.695,-15.52 3.066,-10.13 8.73,-19.49 16.328,-26.98 7.598,-7.49 17.031,-13.04 27.207,-15.94 5.078,-1.47 10.32,-2.32 15.547,-2.47 l 12.352,-0.03 46.339,0.18 87.586,0.82 c 55.832,0.74 106.106,1.85 148.34,3.23 42.317,1.39 76.242,3.01 100.219,4.95 13.418,1.33 22.351,7.25 27.195,11.71 4.883,4.65 6.25,7.99 5.528,8.72 l 0.605,-0.08"
             style="fill:#676565;fill-opacity:1;fill-rule:nonzero;stroke:none"
             id="path1340" />
          <path
             d="m 429.395,3476.64 c 5.351,2.32 13.535,5.27 23.964,4.55 23.329,-1.84 57.715,-3.59 99.883,-5 42.238,-1.43 92.539,-2.58 148.367,-3.37 l 87.61,-0.91 46.347,-0.24 11.172,-0.07 c 2.676,-0.09 5.305,-0.58 7.864,-1.32 5.117,-1.51 9.871,-4.36 13.757,-8.2 3.848,-3.84 6.707,-8.59 8.243,-13.7 0.753,-2.55 1.25,-5.18 1.359,-7.86 l 0.098,-11.12 0.332,-46.34 1.082,-87.59 c 0.918,-55.83 2.168,-106.1 3.691,-148.33 1.504,-42.18 3.301,-76.52 5.195,-99.92 0.782,-10.41 -2.109,-18.63 -4.414,-24 -2.004,-4.53 -3.457,-7.23 -3.418,-8.49 l 0.723,-0.73 c 1.262,-0.03 4.141,1.5 8.027,5.7 4.434,4.88 10.215,13.9 11.414,27.33 1.899,23.84 3.497,57.87 4.856,100.15 1.355,42.24 2.422,92.52 3.105,148.35 l 0.762,87.6 0.149,46.34 0.007,5.89 -0.066,6.59 c -0.207,5.22 -1.125,10.46 -2.609,15.53 -3.008,10.13 -8.653,19.53 -16.204,27.05 -7.566,7.52 -16.968,13.12 -27.136,16.07 -5.078,1.49 -10.313,2.37 -15.535,2.55 l -12.446,0.03 -46.344,-0.25 -87.621,-0.94 c -55.847,-0.8 -106.121,-1.97 -148.355,-3.41 -42.297,-1.46 -76.262,-3.12 -100.18,-5.07 -13.386,-1.29 -22.359,-7.13 -27.215,-11.56 -3.613,-3.4 -5.293,-6.1 -5.644,-7.56 l 1.23,-1.23 c 1.426,0.31 4.016,1.71 7.95,3.48"
             style="fill:#959394;fill-opacity:1;fill-rule:nonzero;stroke:none"
             id="path1342" />
        </g>
      </g>
      <path
         d="m 633.707,3137.01 h -44.68 v 214.16 h 122.754 v -37.21 h -78.074 v -55.22 h 72.656 v -37.07 h -72.656 v -84.66"
         style="fill:#ffffff;fill-opacity:1;fill-rule:nonzero;stroke:none"
         id="path1344" />
    </g>
  </g>
</svg>
