<?xml version="1.0" encoding="UTF-8" standalone="no"?>
<!-- Created with Inkscape (http://www.inkscape.org/) -->

<svg
   version="1.1"
   id="svg2"
   width="319.43741"
   height="319.44263"
   viewBox="0 0 319.43741 319.44262"
   sodipodi:docname="cd77d4f8-6feb-4f51-a952-404bded40584.eps"
   xmlns:inkscape="http://www.inkscape.org/namespaces/inkscape"
   xmlns:sodipodi="http://sodipodi.sourceforge.net/DTD/sodipodi-0.dtd"
   xmlns="http://www.w3.org/2000/svg"
   xmlns:svg="http://www.w3.org/2000/svg">
  <defs
     id="defs6" />
  <sodipodi:namedview
     id="namedview4"
     pagecolor="#ffffff"
     bordercolor="#000000"
     borderopacity="0.25"
     inkscape:showpageshadow="2"
     inkscape:pageopacity="0.0"
     inkscape:pagecheckerboard="0"
     inkscape:deskcolor="#d1d1d1"
     showgrid="false" />
  <g
     id="g10"
     inkscape:groupmode="layer"
     inkscape:label="Page 1"
     transform="matrix(1.3333333,0,0,-1.3333333,-0.13593733,319.5214)">
    <g
       id="g12"
       transform="scale(0.1)">
      <path
         d="m 158.98,15381.4 364.649,-83.7 c 292.312,-67 524.491,-299.3 591.531,-591.6 l 83.67,-364.6 83.83,364.7 c 67.07,292.3 299.25,524.5 591.48,591.5 l 364.73,83.7 -364.73,83.7 c -292.23,67.1 -524.41,299.3 -591.48,591.6 l -83.83,364.8 -83.67,-364.7 c -67.04,-292.3 -299.219,-524.6 -591.609,-591.7 z m 1039.85,-1188.5 c -12.7,0 -23.67,8.7 -26.45,21.1 l -110.15,479.9 c -62.46,272.2 -278.64,488.4 -550.781,550.9 L 31.4102,15355 c -12.3516,2.8 -21.1016,13.8 -21.1016,26.4 0,12.7 8.75,23.7 21.1016,26.5 L 511.371,15518 c 272.219,62.6 488.399,278.8 550.859,551 l 110.15,480 c 5.55,24.7 47.35,24.7 52.89,0 l 110.28,-480.1 c 62.54,-272.1 278.71,-488.3 550.82,-550.9 l 480.04,-110.1 c 12.34,-2.8 21.09,-13.8 21.09,-26.5 0,-12.6 -8.75,-23.6 -21.09,-26.4 l -480.04,-110.2 c -272.11,-62.5 -488.28,-278.7 -550.82,-550.8 l -110.28,-480 c -2.77,-12.4 -13.79,-21.1 -26.44,-21.1"
         style="fill:#001c41;fill-opacity:1;fill-rule:nonzero;stroke:none"
         id="path14" />
      <path
         d="m 4442.3,15381.4 447.47,-46.6 c 201.6,-46 359.21,-203.6 404.76,-402 l 47.03,-450.5 46.56,447.2 c 0.08,1.2 0.28,2.3 0.55,3.3 45.51,198.4 203.05,356 401.41,401.5 l 450.78,47 -447.38,46.6 c -201.68,45.9 -359.3,203.5 -404.81,402 l -46.99,450.7 -46.56,-447.4 c -46.14,-201.8 -203.75,-359.4 -402.19,-404.8 z M 5341.6,14193 c -13.9,0 -25.55,10.5 -26.99,24.4 l -73.52,706.6 c -40.39,174.9 -181.99,316.5 -360.23,357.4 l -703.48,73 c -13.86,1.4 -24.37,13.1 -24.37,27 0,13.9 10.51,25.5 24.37,27 l 706.72,73.5 c 175,40.3 316.6,181.9 357.54,360.2 l 72.97,703.4 c 1.44,13.9 13.09,24.4 26.99,24.4 13.91,0 25.59,-10.5 26.99,-24.4 l 73.52,-706.7 c 40.35,-175 181.95,-316.6 360.19,-357.5 l 703.44,-72.9 c 13.91,-1.5 24.42,-13.1 24.42,-27 0,-13.9 -10.51,-25.6 -24.42,-27 l -706.76,-73.6 c -174.37,-40.2 -315.62,-181.1 -356.99,-358.5 l -73.4,-704.9 c -1.4,-13.9 -13.08,-24.4 -26.99,-24.4"
         style="fill:#001c41;fill-opacity:1;fill-rule:nonzero;stroke:none"
         id="path16" />
      <path
         d="m 8728.2,15381.4 417.89,-28 c 155.12,-35.2 275,-155 309.61,-305.9 l 28.4,-422 28.01,417.8 c 0.08,1.4 0.27,2.8 0.59,4.1 34.41,150.9 154.29,270.8 305.39,305.4 l 422.21,28.4 -417.92,28 c -155.39,35.2 -275.27,155.2 -309.68,306.1 l -28.4,422 -28.01,-417.8 c -35.2,-155.1 -155.08,-275.1 -306.09,-309.6 z M 9484.22,14193 c -14.34,0 -26.21,11.1 -27.11,25.3 l -55,821.3 c -29.3,126.5 -133.2,230.3 -263.91,260.3 l -817.18,54.4 c -14.22,0.9 -25.32,12.8 -25.32,27.1 0,14.3 11.1,26.2 25.32,27.1 l 821.28,54.9 c 126.61,29.3 230.51,133.2 260.51,264 l 54.3,817.2 c 0.9,14.2 12.77,25.3 27.11,25.3 14.3,0 26.17,-11.1 27.07,-25.3 l 55,-821.4 c 29.22,-126.6 133.12,-230.4 264.02,-260.4 l 817.19,-54.3 c 14.3,-0.9 25.4,-12.8 25.4,-27.1 0,-14.3 -11.1,-26.2 -25.4,-27.1 l -821.48,-55.1 C 9700,15270 9596.6,15167.1 9566.21,15037.4 l -54.92,-819.1 c -0.9,-14.2 -12.77,-25.3 -27.07,-25.3"
         style="fill:#001c41;fill-opacity:1;fill-rule:nonzero;stroke:none"
         id="path18" />
      <path
         d="m 17697.7,15030.8 c 33.6,146.1 147.9,260.4 294,293.9 l 847.3,56.7 -847.3,56.7 c -146.1,33.6 -260.4,147.7 -294,294 l -56.6,847.3 -56.7,-847.3 c -33.6,-146.3 -147.8,-260.4 -294.1,-294 l -847.1,-56.7 847.2,-56.7 c 146.2,-33.5 260.4,-147.8 294,-293.9 l 56.7,-847.2 56.6,847.2"
         style="fill:#001c41;fill-opacity:1;fill-rule:nonzero;stroke:none"
         id="path20" />
      <path
         d="m 13332.9,14974.2 c 179.8,112.7 408,112.6 588,0 l 903.9,-790.6 -790.6,903.8 c -112.6,179.9 -112.6,408.3 0,588 l 790.6,904 -903.9,-790.6 c -180,-112.7 -408.2,-112.5 -588,0.1 l -903.8,790.5 790.3,-904.1 c 112.8,-179.7 112.8,-408 0.2,-587.8 l -790.5,-903.9 903.8,790.6"
         style="fill:#001c41;fill-opacity:1;fill-rule:nonzero;stroke:none"
         id="path22" />
      <path
         d="m 5455.2,4187.7 c 67.3,293.08 296.13,521.91 589.21,589.21 l 495.04,113.6 -495,113.59 c -293.12,67.31 -521.95,296.21 -589.25,589.3 l -113.6,495.12 -113.59,-495.12 c -67.31,-293.09 -296.1,-521.99 -589.26,-589.3 l -495.04,-113.59 495.12,-113.6 c 293.08,-67.3 521.87,-296.13 589.18,-589.21 l 113.59,-495 113.6,495"
         style="fill:#001c41;fill-opacity:1;fill-rule:nonzero;stroke:none"
         id="path24" />
      <path
         d="m 9560.12,4421.6 c 44.76,195.51 197.5,348.2 392.97,393.01 l 729.01,75.98 -728.82,75.7 c -195.66,44.92 -348.4,197.62 -393.16,393.2 l -75.9,729.03 -75.82,-729.03 c -44.81,-195.58 -197.7,-348.28 -393.2,-393.2 l -728.79,-75.7 728.9,-75.98 c 195.59,-44.81 348.28,-197.5 393.09,-393.01 l 75.82,-728.98 75.9,728.98"
         style="fill:#001c41;fill-opacity:1;fill-rule:nonzero;stroke:none"
         id="path26" />
      <path
         d="m 13683.6,4539.88 c 33.4,146.14 147.7,260.43 293.8,293.91 l 847.4,56.8 -847.2,56.6 c -146.3,33.59 -260.6,147.69 -294,294.02 l -56.7,847.31 -56.7,-847.31 c -33.6,-146.33 -147.9,-260.43 -294.1,-294.02 l -847,-56.6 847.1,-56.8 c 146.3,-33.48 260.4,-147.77 294,-293.91 l 56.7,-847.26 56.7,847.26"
         style="fill:#001c41;fill-opacity:1;fill-rule:nonzero;stroke:none"
         id="path28" />
      <path
         d="m 17697.7,4539.88 c 33.5,146.14 147.8,260.43 294,293.91 l 847.3,56.8 -847.3,56.6 c -146.2,33.59 -260.5,147.69 -294,294.02 l -56.6,847.31 -56.7,-847.31 c -33.6,-146.33 -147.8,-260.43 -294,-294.02 l -847.2,-56.6 847.2,-56.8 c 146.2,-33.48 260.4,-147.77 294,-293.91 l 56.7,-847.26 56.6,847.26"
         style="fill:#001c41;fill-opacity:1;fill-rule:nonzero;stroke:none"
         id="path30" />
      <path
         d="m 1282.46,4823.01 1114.34,67.58 -1114.34,67.3 -83.51,1130.51 -83.68,-1130.51 -1114.21922,-67.3 1114.21922,-67.58 83.68,-1130.31 83.51,1130.31"
         style="fill:#001c41;fill-opacity:1;fill-rule:nonzero;stroke:none"
         id="path32" />
      <path
         d="m 1198.79,13239 c 85.9,-795.7 86.52,-1600.2 0.04,-2395.8 -86.64,795.6 -85.94,1600.1 -0.04,2395.8"
         style="fill:#ffeeaa;fill-opacity:1;fill-rule:nonzero;stroke:none"
         id="path34"
         inkscape:export-filename="star.svg"
         inkscape:export-xdpi="96"
         inkscape:export-ydpi="96" />
      <path
         d="m 2396.64,12041.2 c -795.55,-85.9 -1599.878,-86.6 -2395.42906,0 795.50806,86.6 1599.87906,85.9 2395.42906,0"
         style="fill:#ffeeaa;fill-opacity:1;fill-rule:nonzero;stroke:none"
         id="path36" />
      <path
         d="m 2045.98,12888.1 c -501.88,-623.3 -1070.281,-1192.7 -1694.031,-1694 501.332,623.8 1070.711,1192.2 1694.031,1694"
         style="fill:#ffeeaa;fill-opacity:1;fill-rule:nonzero;stroke:none"
         id="path38" />
      <path
         d="M 2045.98,11194.2 C 1422.66,11696 853.398,12264.3 352.07,12888.1 975.859,12386.8 1544.18,11817.5 2045.98,11194.2"
         style="fill:#ffeeaa;fill-opacity:1;fill-rule:nonzero;stroke:none"
         id="path40" />
      <path
         d="m 5341.56,13239 c 68.71,-796.7 69.26,-1599.1 0.04,-2395.8 -69.33,796.7 -68.79,1599.1 -0.04,2395.8"
         style="fill:#001c41;fill-opacity:1;fill-rule:nonzero;stroke:none"
         id="path42" />
      <path
         d="m 6539.38,12041.2 c -796.61,-68.8 -1598.95,-69.3 -2395.55,0 796.6,69.2 1598.94,68.7 2395.55,0"
         style="fill:#001c41;fill-opacity:1;fill-rule:nonzero;stroke:none"
         id="path44" />
      <path
         d="m 6188.63,12888.1 c -514.76,-612 -1081.72,-1179.6 -1694.06,-1694 514.34,612.3 1082.11,1179.3 1694.06,1694"
         style="fill:#001c41;fill-opacity:1;fill-rule:nonzero;stroke:none"
         id="path46" />
      <path
         d="m 6188.63,11194.1 c -611.87,514.8 -1179.53,1081.7 -1693.79,1694 612.27,-514.3 1179.14,-1082 1693.79,-1694"
         style="fill:#001c41;fill-opacity:1;fill-rule:nonzero;stroke:none"
         id="path48" />
      <path
         d="m 9484.3,13239 c 36.4,-798.1 36.72,-1597.7 0,-2395.8 -36.68,798.1 -36.41,1597.7 0,2395.8"
         style="fill:#001c41;fill-opacity:1;fill-rule:nonzero;stroke:none"
         id="path50" />
      <path
         d="m 10682,12041.2 c -798.02,-36.4 -1597.51,-36.7 -2395.52,0 798.01,36.7 1597.5,36.4 2395.52,0"
         style="fill:#001c41;fill-opacity:1;fill-rule:nonzero;stroke:none"
         id="path52" />
      <path
         d="m 10331.3,12888.1 c -538.6,-590 -1103.92,-1155.7 -1694.11,-1694 538.4,590.3 1104.02,1155.5 1694.11,1694"
         style="fill:#001c41;fill-opacity:1;fill-rule:nonzero;stroke:none"
         id="path54" />
      <path
         d="m 10331.3,11194.2 c -590.01,538.5 -1155.6,1103.7 -1693.92,1693.9 590.24,-538.3 1155.43,-1103.9 1693.92,-1693.9"
         style="fill:#001c41;fill-opacity:1;fill-rule:nonzero;stroke:none"
         id="path56" />
      <path
         d="m 13626.9,13239 c 57.3,-798.4 57.7,-1597.4 0.1,-2395.8 -57.8,798.4 -57.3,1597.4 -0.1,2395.8"
         style="fill:#001c41;fill-opacity:1;fill-rule:nonzero;stroke:none"
         id="path58" />
      <path
         d="m 14824.7,12041.2 c -798.3,-57.3 -1597.3,-57.7 -2395.6,0 798.3,57.7 1597.3,57.2 2395.6,0"
         style="fill:#001c41;fill-opacity:1;fill-rule:nonzero;stroke:none"
         id="path60" />
      <path
         d="m 14474,12888.1 c -524.1,-605 -1088.7,-1170.3 -1694.1,-1694 523.8,605.3 1089.1,1169.9 1694.1,1694"
         style="fill:#001c41;fill-opacity:1;fill-rule:nonzero;stroke:none"
         id="path62" />
      <path
         d="m 14474,11194.2 c -604.9,524 -1170.2,1088.6 -1693.9,1693.9 605.3,-523.7 1169.9,-1088.9 1693.9,-1693.9"
         style="fill:#001c41;fill-opacity:1;fill-rule:nonzero;stroke:none"
         id="path64" />
      <path
         d="m 17681.3,13132.4 -30.1,-940.2 c -0.2,-12.4 -20,-12.8 -20.1,0 l -30.1,940.2 c -1.4,53.9 81.5,54.4 80.3,0"
         style="fill:#ffeeaa;fill-opacity:1;fill-rule:nonzero;stroke:none"
         id="path66" />
      <path
         d="m 17601,10849.2 30.1,940.2 c 0.1,12.3 19.9,12.8 20.1,0 l 30.1,-940.2 c 1.3,-53.9 -81.6,-54.4 -80.3,0"
         style="fill:#ffeeaa;fill-opacity:1;fill-rule:nonzero;stroke:none"
         id="path68" />
      <path
         d="m 18782.6,11950.7 -940.1,30.1 c -12.3,0.2 -12.7,19.9 0,20.1 l 940.1,30.1 c 53.9,1.3 54.4,-81.6 0,-80.3"
         style="fill:#ffeeaa;fill-opacity:1;fill-rule:nonzero;stroke:none"
         id="path70" />
      <path
         d="m 16499.6,12031 940,-30.1 c 12.4,-0.2 12.8,-19.9 0,-20.1 l -940,-30.1 c -53.9,-1.3 -54.4,81.6 0,80.3"
         style="fill:#ffeeaa;fill-opacity:1;fill-rule:nonzero;stroke:none"
         id="path72" />
      <path
         d="m 18299,12592 -539.6,-497.3 c -8.9,-8.5 -22.9,5.1 -14.2,14.2 l 497,539.9 c 37.3,39.7 96.7,-19.1 56.8,-56.8"
         style="fill:#ffeeaa;fill-opacity:1;fill-rule:nonzero;stroke:none"
         id="path74" />
      <path
         d="m 16983.2,11389.5 539.5,497.4 c 9,8.5 23,-5.1 14.3,-14.2 l -497,-539.9 c -37.3,-39.8 -96.8,19.1 -56.8,56.7"
         style="fill:#ffeeaa;fill-opacity:1;fill-rule:nonzero;stroke:none"
         id="path76" />
      <path
         d="m 18242.2,11332.9 -497,539.8 c -8.5,8.9 5.1,22.9 14.2,14.2 l 539.6,-497.2 c 39.7,-37.3 -19.3,-96.8 -56.8,-56.8"
         style="fill:#ffeeaa;fill-opacity:1;fill-rule:nonzero;stroke:none"
         id="path78" />
      <path
         d="m 17040,12648.7 497,-539.8 c 8.5,-8.9 -5.1,-22.9 -14.3,-14.2 l -539.5,497.2 c -39.7,37.3 19.2,96.7 56.8,56.8"
         style="fill:#ffeeaa;fill-opacity:1;fill-rule:nonzero;stroke:none"
         id="path80" />
      <path
         d="m 16605.9,8566.02 1035.2,-1035.24 1035.1,1035.24 -1035.1,1035.19 z m 1035.2,-1119.11 c -9.2,0 -18.1,3.68 -24.6,10.2 l -1084.2,1084.3 c -13.6,13.59 -13.6,35.58 0,49.1 l 1084.2,1084.29 c 13.6,13.6 35.6,13.6 49.1,0 l 1084.3,-1084.29 c 13.5,-13.52 13.5,-35.51 0,-49.1 l -1084.3,-1084.3 c -6.5,-6.52 -15.3,-10.2 -24.5,-10.2"
         style="fill:#001c41;fill-opacity:1;fill-rule:nonzero;stroke:none"
         id="path82" />
      <path
         d="m 12774.8,8566.02 852.1,-1048.91 852.2,1048.91 -852.2,1048.86 z m 852.1,-1138.72 c -10.5,0 -20.4,4.69 -27,12.82 l -896.8,1103.98 c -10.3,12.7 -10.3,31.1 0,43.79 l 896.8,1103.91 c 13.2,16.29 40.7,16.29 53.9,0 l 896.9,-1103.91 c 10.4,-12.69 10.4,-31.09 0,-43.79 l -896.9,-1103.98 c -6.6,-8.13 -16.5,-12.82 -26.9,-12.82"
         style="fill:#001c41;fill-opacity:1;fill-rule:nonzero;stroke:none"
         id="path84" />
      <path
         d="m 8880,8566.02 604.22,-1060.32 604.28,1060.32 -604.28,1060.19 z m 604.22,-1165.24 c -12.5,0 -24.02,6.84 -30.24,17.62 l -644.1,1130.39 c -5.97,10.7 -5.97,23.71 0,34.41 l 644.1,1130.32 c 12.43,21.68 48.01,21.68 60.43,0.07 L 10158.6,8583.2 c 6.1,-10.7 6.1,-23.71 0,-34.41 L 9514.41,7418.28 c -6.21,-10.66 -17.69,-17.5 -30.19,-17.5"
         style="fill:#001c41;fill-opacity:1;fill-rule:nonzero;stroke:none"
         id="path86" />
      <path
         d="m 889.379,8566.02 309.571,-1011.8 309.53,1011.8 -309.53,1011.68 z M 1198.95,7400.78 c -15.24,0 -28.75,10 -33.21,24.61 l -345.9,1130.39 c -1.949,6.72 -1.949,13.71 0,20.43 l 345.9,1130.27 c 4.46,14.61 17.97,24.61 33.21,24.61 15.27,0 28.75,-10 33.24,-24.61 l 345.82,-1130.27 c 1.95,-6.72 1.95,-13.71 0,-20.43 L 1232.19,7425.39 c -4.49,-14.61 -17.97,-24.61 -33.24,-24.61"
         style="fill:#001c41;fill-opacity:1;fill-rule:nonzero;stroke:none"
         id="path88" />
      <path
         d="M 4856.8,8566.02 5341.6,7518.2 5826.45,8566.02 5341.6,9613.71 Z m 484.8,-1165.24 c -13.55,0 -25.82,7.93 -31.52,20.24 l -523.09,1130.39 c -4.26,9.18 -4.26,20 0,29.18 l 523.09,1130.31 c 11.4,24.61 51.68,24.61 63.08,0 l 523.05,-1130.31 c 4.3,-9.18 4.3,-20 0,-29.18 L 5373.16,7421.02 c -5.7,-12.31 -17.96,-20.24 -31.56,-20.24"
         style="fill:#001c41;fill-opacity:1;fill-rule:nonzero;stroke:none"
         id="path90" />
      <path
         d="M 1353.63,1043.91 2396.8,1198.59 1353.63,1353.2 1198.91,2396.41 1044.22,1353.2 1.01953,1198.59 1044.22,1043.91 1198.91,0.589844 1353.63,1043.91"
         style="fill:#ffeeaa;fill-opacity:1;fill-rule:nonzero;stroke:none"
         id="path92" />
      <path
         d="M 1198.91,1045.9 1790,607.5 1351.6,1198.59 1790,1789.69 1198.91,1351.21 607.809,1789.69 1046.21,1198.59 607.809,607.5 1198.91,1045.9"
         style="fill:#ffeeaa;fill-opacity:1;fill-rule:nonzero;stroke:none"
         id="path94" />
      <path
         d="m 5565.2,974.883 974.25,223.707 -974.25,223.52 -223.6,974.3 -223.59,-974.3 -974.3,-223.52 974.3,-223.707 L 5341.6,0.589844 5565.2,974.883"
         style="fill:#001c41;fill-opacity:1;fill-rule:nonzero;stroke:none"
         id="path96" />
      <path
         d="M 9484.1,751.293 10682.1,0.78125 9931.41,1198.59 10682.1,2396.41 9484.3,1645.7 8286.41,2396.41 9036.91,1198.52 8286.41,0.699219 9484.1,751.293"
         style="fill:#001c41;fill-opacity:1;fill-rule:nonzero;stroke:none"
         id="path98" />
      <path
         d="m 17641.1,2366.41 192.4,-829.5 768.1,366.8 -528.4,-667.42 765.7,-371.989 -851.4,-2.891 186.7,-830.7108 -533.1,663.9138 -533,-663.9138 186.7,830.7108 -851.6,2.891 765.8,371.989 -528.3,667.42 768.1,-366.8 192.3,829.5"
         style="fill:#001c41;fill-opacity:1;fill-rule:nonzero;stroke:none"
         id="path100" />
      <path
         d="m 14130.7,21.293 -524,275.508 -542.2,-237.8908 -111.3,581.4028 -524.1,275.468 385.3,449.729 -111.4,581.48 591.6,-20.9 385.3,449.69 352.6,-475.58 591.7,-20.79 -152,-572.3 352.6,-475.63 -542.1,-237.96 -152,-572.227"
         style="fill:#001c41;fill-opacity:1;fill-rule:nonzero;stroke:none"
         id="path102" />
    </g>
  </g>
</svg>
